<?xml version="1.0" encoding="UTF-8" standalone="no"?>
<!-- Created with Inkscape (http://www.inkscape.org/) -->

<svg
   width="179.53676mm"
   height="126.70709mm"
   viewBox="0 0 179.53674 126.70709"
   version="1.1"
   id="svg1"
   xml:space="preserve"
   xmlns:xlink="http://www.w3.org/1999/xlink"
   xmlns="http://www.w3.org/2000/svg"
   xmlns:svg="http://www.w3.org/2000/svg"><defs
     id="defs1"><linearGradient
       id="linearGradient31"><stop
         style="stop-color:#000000;stop-opacity:1;"
         offset="0"
         id="stop31" /><stop
         style="stop-color:#000000;stop-opacity:0;"
         offset="1"
         id="stop32" /></linearGradient><radialGradient
       xlink:href="#linearGradient31"
       id="radialGradient32"
       cx="97.390343"
       cy="266.35846"
       fx="97.390343"
       fy="266.35846"
       r="75.166901"
       gradientTransform="matrix(1.2185714,0,0,0.87487373,-68.482625,-74.512474)"
       gradientUnits="userSpaceOnUse" /></defs><g
     id="g26"
     transform="translate(39.573917,-95.163963)"><g
       id="g21"><rect
         style="display:inline;fill:url(#radialGradient32);fill-opacity:0.6;stroke:none;stroke-width:4.19592;stroke-dasharray:none;stroke-opacity:1"
         id="rect31"
         width="179.53676"
         height="126.70709"
         x="-39.573917"
         y="95.163963" /><path
         style="font-weight:500;font-size:7.54427px;font-family:Montserrat;-inkscape-font-specification:'Montserrat Medium';fill:#ffffff;fill-opacity:0.6;stroke-width:0.711062"
         d="m -10.818845,188.84984 v -5.28099 h 2.368901 q 0.912856,0 1.403234,0.36967 0.490377,0.36212 0.490377,0.99584 0,0.43003 -0.196151,0.72425 -0.188606,0.29423 -0.51301,0.45266 -0.324404,0.15843 -0.701617,0.15843 l 0.135797,-0.22633 q 0.452656,0 0.799692,0.15843 0.347037,0.15843 0.550732,0.46774 0.203695,0.30177 0.203695,0.75443 0,0.67898 -0.51301,1.0562 -0.505466,0.36967 -1.508854,0.36967 z m 0.754427,-0.61109 h 1.735182 q 0.626174,0 0.958122,-0.21124 0.331948,-0.21124 0.331948,-0.66389 0,-0.4602 -0.331948,-0.67144 -0.331948,-0.21124 -0.958122,-0.21124 h -1.803081 v -0.61109 h 1.614474 q 0.573365,0 0.890224,-0.21124 0.316859,-0.21124 0.316859,-0.63372 0,-0.42248 -0.316859,-0.63372 -0.316859,-0.21124 -0.890224,-0.21124 h -1.546575 z m 4.956585,0.61109 v -5.28099 h 2.059586 q 1.026021,0 1.614474,0.49038 0.588453,0.48283 0.588453,1.35042 0,0.57336 -0.26405,0.9883 -0.264049,0.40739 -0.754427,0.62617 -0.490377,0.21879 -1.18445,0.21879 h -1.644651 l 0.339492,-0.34704 v 1.95397 z m 3.530718,0 -1.34288,-1.91625 h 0.807237 l 1.357969,1.91625 z m -2.776291,-1.87853 -0.339492,-0.36966 h 1.622018 q 0.72425,0 1.093919,-0.30932 0.377214,-0.31686 0.377214,-0.88268 0,-0.56582 -0.377214,-0.87514 -0.369669,-0.30931 -1.093919,-0.30931 h -1.622018 l 0.339492,-0.37721 z m 4.730252,1.87853 v -5.28099 h 0.754427 v 5.28099 z m 1.539027,0 2.391533,-5.28099 h 0.746883 l 2.399078,5.28099 H 6.661218 L 4.52619,183.99133 h 0.301771 l -2.135029,4.85851 z m 1.018476,-1.32025 0.203695,-0.60354 h 2.972443 l 0.218784,0.60354 z m 5.303626,1.32025 v -5.28099 h 0.61863 l 3.492997,4.33795 h -0.324404 v -4.33795 h 0.754427 v 5.28099 h -0.61863 l -3.492997,-4.33796 h 0.324404 v 4.33796 z m 5.854354,-3.24404 -0.04527,-2.03695 h 0.633719 l -0.05281,2.03695 z m 3.394916,3.30439 q -0.603541,0 -1.154273,-0.18106 -0.550732,-0.18861 -0.867591,-0.48283 l 0.279138,-0.58846 q 0.301771,0.26405 0.769515,0.43757 0.467745,0.17352 0.973211,0.17352 0.460201,0 0.746883,-0.10562 0.286682,-0.10562 0.422479,-0.28668 0.135797,-0.18861 0.135797,-0.42248 0,-0.2716 -0.181063,-0.43757 -0.173518,-0.16597 -0.4602,-0.26405 -0.279138,-0.10562 -0.61863,-0.18106 -0.339492,-0.0754 -0.686529,-0.17352 -0.339492,-0.10562 -0.626174,-0.26405 -0.279138,-0.15843 -0.452656,-0.42248 -0.173519,-0.27159 -0.173519,-0.69407 0,-0.40739 0.21124,-0.74688 0.218784,-0.34704 0.663896,-0.55074 0.452656,-0.21123 1.146729,-0.21123 0.4602,0 0.912856,0.1207 0.452657,0.12071 0.784604,0.34704 l -0.24896,0.60354 q -0.339493,-0.22633 -0.716706,-0.3244 -0.377214,-0.10562 -0.731794,-0.10562 -0.445112,0 -0.731794,0.11316 -0.286683,0.11317 -0.42248,0.30177 -0.128252,0.18861 -0.128252,0.42248 0,0.27914 0.173518,0.44511 0.181062,0.16598 0.4602,0.26405 0.286683,0.0981 0.626175,0.18106 0.339492,0.0754 0.678984,0.17352 0.347037,0.0981 0.626175,0.25651 0.286682,0.15843 0.4602,0.42248 0.173518,0.26405 0.173518,0.67898 0,0.39985 -0.218784,0.74688 -0.218783,0.3395 -0.678984,0.55074 -0.452656,0.20369 -1.146729,0.20369 z m 6.714394,0 q -0.603542,0 -1.154274,-0.18106 -0.550731,-0.18861 -0.867591,-0.48283 l 0.279138,-0.58846 q 0.301771,0.26405 0.769516,0.43757 0.467745,0.17352 0.973211,0.17352 0.4602,0 0.746882,-0.10562 0.286683,-0.10562 0.42248,-0.28668 0.135796,-0.18861 0.135796,-0.42248 0,-0.2716 -0.181062,-0.43757 -0.173518,-0.16597 -0.4602,-0.26405 -0.279138,-0.10562 -0.618631,-0.18106 -0.339492,-0.0754 -0.686528,-0.17352 -0.339492,-0.10562 -0.626175,-0.26405 -0.279138,-0.15843 -0.452656,-0.42248 -0.173518,-0.27159 -0.173518,-0.69407 0,-0.40739 0.21124,-0.74688 0.218783,-0.34704 0.663895,-0.55074 0.452656,-0.21123 1.146729,-0.21123 0.460201,0 0.912857,0.1207 0.452656,0.12071 0.784604,0.34704 l -0.248961,0.60354 q -0.339492,-0.22633 -0.716705,-0.3244 -0.377214,-0.10562 -0.731795,-0.10562 -0.445112,0 -0.731794,0.11316 -0.286682,0.11317 -0.422479,0.30177 -0.128253,0.18861 -0.128253,0.42248 0,0.27914 0.173519,0.44511 0.181062,0.16598 0.4602,0.26405 0.286682,0.0981 0.626175,0.18106 0.339492,0.0754 0.678984,0.17352 0.347036,0.0981 0.626174,0.25651 0.286682,0.15843 0.460201,0.42248 0.173518,0.26405 0.173518,0.67898 0,0.39985 -0.218784,0.74688 -0.218784,0.3395 -0.678984,0.55074 -0.452656,0.20369 -1.146729,0.20369 z m 3.145962,-0.0603 v -5.28099 h 0.754427 v 5.28099 z m 2.338723,0 v -5.28099 h 0.61863 l 2.368901,3.99092 h -0.331948 l 2.338723,-3.99092 h 0.618631 l 0.0075,5.28099 h -0.72425 l -0.0075,-4.1418 h 0.173518 l -2.082219,3.50054 h -0.347036 l -2.097307,-3.50054 h 0.188607 v 4.1418 z m 7.204776,0 v -5.28099 h 2.059586 q 0.694073,0 1.184451,0.21879 0.490377,0.21878 0.754427,0.63371 0.264049,0.41494 0.264049,0.9883 0,0.57337 -0.264049,0.9883 -0.26405,0.40739 -0.754427,0.63372 -0.490378,0.21879 -1.184451,0.21879 h -1.644651 l 0.339492,-0.35458 v 1.95396 z m 0.754427,-1.87852 -0.339492,-0.37721 h 1.622018 q 0.72425,0 1.093919,-0.30932 0.377214,-0.30931 0.377214,-0.87513 0,-0.56583 -0.377214,-0.87514 -0.369669,-0.30932 -1.093919,-0.30932 h -1.622018 l 0.339492,-0.37721 z m 4.617091,1.87852 v -5.28099 h 0.754427 v 4.62464 h 2.859273 v 0.65635 z m 4.4813,0 v -5.28099 h 3.72687 v 0.65635 h -2.97245 v 3.96829 h 3.07807 v 0.65635 z m 0.68652,-2.36135 v -0.64127 h 2.71594 v 0.64127 z m 7.93657,2.42171 q -0.60354,0 -1.15428,-0.18107 -0.55073,-0.1886 -0.86759,-0.48283 l 0.27914,-0.58845 q 0.30177,0.26405 0.76952,0.43756 0.46774,0.17352 0.97321,0.17352 0.4602,0 0.74688,-0.10562 0.28668,-0.10562 0.42248,-0.28668 0.1358,-0.18861 0.1358,-0.42248 0,-0.27159 -0.18107,-0.43757 -0.17351,-0.16597 -0.4602,-0.26404 -0.27913,-0.10562 -0.61863,-0.18107 -0.33949,-0.0754 -0.68653,-0.17352 -0.33949,-0.10562 -0.62617,-0.26405 -0.27914,-0.15842 -0.45266,-0.42247 -0.17351,-0.2716 -0.17351,-0.69408 0,-0.40739 0.21124,-0.74688 0.21878,-0.34704 0.66389,-0.55073 0.45266,-0.21124 1.14673,-0.21124 0.4602,0 0.91286,0.12071 0.45265,0.12071 0.7846,0.34703 l -0.24896,0.60355 q -0.33949,-0.22633 -0.71671,-0.32441 -0.37721,-0.10562 -0.73179,-0.10562 -0.44511,0 -0.73179,0.11317 -0.28669,0.11316 -0.42248,0.30177 -0.12826,0.1886 -0.12826,0.42248 0,0.27913 0.17352,0.44511 0.18107,0.16597 0.4602,0.26405 0.28669,0.0981 0.62618,0.18106 0.33949,0.0754 0.67898,0.17352 0.34704,0.0981 0.62618,0.2565 0.28668,0.15843 0.4602,0.42248 0.17352,0.26405 0.17352,0.67899 0,0.39984 -0.21879,0.74688 -0.21878,0.33949 -0.67898,0.55073 -0.45266,0.2037 -1.14673,0.2037 z m 3.14596,-0.0603 v -5.28099 h 3.72687 v 0.65635 h -2.97244 v 3.96828 h 3.07806 v 0.65636 z m 0.68653,-2.36136 v -0.64126 h 2.71594 v 0.64126 z m 6.72367,2.42171 q -0.60354,0 -1.11656,-0.19615 -0.50546,-0.2037 -0.88267,-0.56582 -0.36967,-0.36967 -0.58091,-0.86005 -0.21124,-0.49038 -0.21124,-1.07883 0,-0.58845 0.21124,-1.07883 0.21124,-0.49038 0.58845,-0.8525 0.37721,-0.36967 0.88268,-0.56582 0.51301,-0.2037 1.11655,-0.2037 0.61109,0 1.1241,0.21124 0.52055,0.2037 0.88268,0.61109 l -0.49038,0.47529 q -0.30177,-0.31686 -0.67899,-0.46775 -0.37721,-0.15843 -0.80723,-0.15843 -0.44511,0 -0.82987,0.15089 -0.37722,0.15088 -0.65635,0.42248 -0.27914,0.27159 -0.43757,0.6488 -0.15089,0.36967 -0.15089,0.80724 0,0.43757 0.15089,0.81478 0.15843,0.36967 0.43757,0.64127 0.27913,0.27159 0.65635,0.42247 0.38476,0.15089 0.82987,0.15089 0.43002,0 0.80723,-0.15089 0.37722,-0.15842 0.67899,-0.48283 l 0.49038,0.47529 q -0.36213,0.40739 -0.88268,0.61863 -0.51301,0.21124 -1.13164,0.21124 z m 3.0177,-0.0603 v -5.28099 h 2.05958 q 1.02603,0 1.61448,0.49038 0.58845,0.48283 0.58845,1.35042 0,0.57337 -0.26405,0.9883 -0.26405,0.40739 -0.75442,0.62618 -0.49038,0.21878 -1.18446,0.21878 h -1.64465 l 0.3395,-0.34704 V 188.85 Z m 3.53072,0 -1.34288,-1.91625 h 0.80723 l 1.35797,1.91625 z m -2.77629,-1.87852 -0.3395,-0.36967 h 1.62202 q 0.72425,0 1.09392,-0.30932 0.37721,-0.31686 0.37721,-0.88268 0,-0.56582 -0.37721,-0.87513 -0.36967,-0.30932 -1.09392,-0.30932 h -1.62202 l 0.3395,-0.37721 z m 4.73025,1.87852 v -5.28099 h 3.72687 v 0.65635 h -2.97244 v 3.96829 h 3.07806 V 188.85 Z m 0.68653,-2.36136 v -0.64126 h 2.71593 v 0.64126 z m 5.41678,2.36136 v -4.62464 h -1.81063 v -0.65635 h 4.36814 v 0.65635 h -1.81063 V 188.85 Z m 6.94826,0.0603 q -0.60354,0 -1.15427,-0.18106 -0.55073,-0.18861 -0.86759,-0.48284 l 0.27914,-0.58845 q 0.30177,0.26405 0.76951,0.43757 0.46775,0.17352 0.97321,0.17352 0.4602,0 0.74689,-0.10562 0.28668,-0.10562 0.42247,-0.28668 0.1358,-0.18861 0.1358,-0.42248 0,-0.2716 -0.18106,-0.43757 -0.17352,-0.16598 -0.4602,-0.26405 -0.27914,-0.10562 -0.61863,-0.18106 -0.33949,-0.0754 -0.68653,-0.17352 -0.33949,-0.10562 -0.62617,-0.26405 -0.27914,-0.15843 -0.45266,-0.42248 -0.17352,-0.27159 -0.17352,-0.69407 0,-0.40739 0.21124,-0.74689 0.21878,-0.34703 0.6639,-0.55073 0.45265,-0.21124 1.14673,-0.21124 0.4602,0 0.91285,0.12071 0.45266,0.12071 0.78461,0.34704 l -0.24896,0.60354 q -0.3395,-0.22633 -0.71671,-0.3244 -0.37721,-0.10562 -0.73179,-0.10562 -0.44512,0 -0.7318,0.11316 -0.28668,0.11316 -0.42248,0.30177 -0.12825,0.18861 -0.12825,0.42248 0,0.27914 0.17352,0.44511 0.18106,0.16598 0.4602,0.26405 0.28668,0.0981 0.62617,0.18106 0.33949,0.0754 0.67899,0.17352 0.34703,0.0981 0.62617,0.25651 0.28668,0.15843 0.4602,0.42248 0.17352,0.26405 0.17352,0.67898 0,0.39985 -0.21878,0.74688 -0.21879,0.3395 -0.67899,0.55073 -0.45265,0.2037 -1.14673,0.2037 z m 4.11918,-0.0603 v -4.62464 h -1.81063 v -0.65635 h 4.36813 v 0.65635 h -1.81062 V 188.85 Z m 5.68837,0.0603 q -0.60354,0 -1.12409,-0.20369 -0.51301,-0.2037 -0.89023,-0.56583 -0.37721,-0.36966 -0.58845,-0.86004 -0.21124,-0.49038 -0.21124,-1.07129 0,-0.58091 0.21124,-1.07128 0.21124,-0.49038 0.58845,-0.85251 0.37722,-0.36967 0.89023,-0.57336 0.51301,-0.2037 1.12409,-0.2037 0.60355,0 1.10901,0.2037 0.51301,0.19615 0.89023,0.56582 0.38475,0.36212 0.58845,0.8525 0.211242,0.49038 0.211242,1.07883 0,0.58845 -0.211242,1.07883 -0.2037,0.49038 -0.58845,0.86005 -0.37722,0.36212 -0.89023,0.56582 -0.50546,0.19615 -1.10901,0.19615 z m 0,-0.67144 q 0.43757,0 0.80724,-0.15089 0.37721,-0.15088 0.64881,-0.42247 0.27914,-0.27914 0.43002,-0.64881 0.15843,-0.36967 0.15843,-0.80724 0,-0.43757 -0.15843,-0.80724 -0.15088,-0.36967 -0.43002,-0.64126 -0.2716,-0.27914 -0.64881,-0.43002 -0.36967,-0.15089 -0.80724,-0.15089 -0.44511,0 -0.82232,0.15089 -0.36967,0.15088 -0.64881,0.43002 -0.27914,0.27159 -0.43757,0.64126 -0.15088,0.36967 -0.15088,0.80724 0,0.43757 0.15088,0.80724 0.15843,0.36967 0.43757,0.64881 0.27914,0.27159 0.64881,0.42247 0.37721,0.15089 0.82232,0.15089 z m 3.953202,0.61109 v -5.28099 h 2.05959 q 1.02602,0 1.61447,0.49037 0.58846,0.48284 0.58846,1.35043 0,0.57336 -0.26405,0.9883 -0.26405,0.40739 -0.75443,0.62617 -0.49038,0.21879 -1.18445,0.21879 h -1.64465 l 0.33949,-0.34704 v 1.95397 z m 3.53072,0 -1.34288,-1.91625 h 0.80724 l 1.35797,1.91625 z m -2.77629,-1.87853 -0.33949,-0.36967 h 1.62202 q 0.72425,0 1.09392,-0.30931 0.37721,-0.31686 0.37721,-0.88268 0,-0.56582 -0.37721,-0.87514 -0.36967,-0.30931 -1.09392,-0.30931 h -1.62202 l 0.33949,-0.37721 z m 4.73025,1.87853 v -5.28099 h 3.72687 v 0.65635 h -2.97244 v 3.96828 h 3.07806 v 0.65636 z m 0.68653,-2.36136 v -0.64126 h 2.71594 v 0.64126 z"
         id="path15"
         aria-label="BRIAN'S SIMPLE SECRET STORE" /><path
         d="m 96.812284,148.82837 q 6.285736,0.77562 9.590606,4.2659 3.30487,3.49029 3.30487,8.72572 0,3.94273 -2.00884,7.17447 -2.00885,3.23175 -6.09133,5.1708 -4.017687,1.87441 -9.849813,1.87441 -4.860106,0 -9.396206,-1.35733 -4.471287,-1.42197 -7.646558,-3.8781 l 3.628874,-6.52813 q 2.462455,2.06832 5.961733,3.29638 3.56407,1.16343 7.322551,1.16343 4.471297,0 6.998555,-1.80978 2.592054,-1.87441 2.592054,-5.04152 0,-3.16711 -2.462458,-4.91225 -2.397651,-1.80978 -7.387354,-1.80978 h -4.147291 v -5.75251 L 97.5251,137.19408 H 76.918255 v -7.04521 h 30.910265 v 5.62324 z"
         id="path16"
         style="font-weight:600;font-size:64.7181px;font-family:'Montserrat Alternates';-inkscape-font-specification:'Montserrat Alternates Semi-Bold';fill:none;stroke:#cee1fb;stroke-width:3;stroke-dasharray:none;stroke-opacity:1"
         aria-label="3" /><path
         id="path17"
         mask="none"
         style="font-weight:600;font-size:66.2703px;font-family:'Montserrat Alternates';-inkscape-font-specification:'Montserrat Alternates Semi-Bold';fill:#cee1fb;fill-opacity:1;stroke-width:0.690314"
         d="m 52.796398,128.12472 c -3.96984,0 -7.33544,0.63357 -10.097062,1.90014 -2.718468,1.26657 -4.768169,2.98501 -6.148979,5.15627 -1.337659,2.12603 -2.006079,4.50102 -2.006079,7.12463 0,3.1212 0.754717,5.60901 2.264978,7.46363 1.240174,1.44453 2.659395,2.58655 4.257105,3.42563 a 10.607332,10.607332 0 0 1 -0.01964,-0.64337 10.607332,10.607332 0 0 1 3.069581,-7.46311 c -0.815087,-0.83947 -1.222665,-1.90295 -1.222665,-3.18999 0,-1.94509 0.798117,-3.50526 2.394691,-4.68136 1.6397,-1.17611 4.1209,-1.76424 7.44347,-1.76424 2.02806,0 4.12117,0.31653 6.27869,0.94982 2.15751,0.63328 4.22866,1.5604 6.21357,2.78174 l 2.65359,-6.85281 c -1.94177,-1.35704 -4.25036,-2.39751 -6.92568,-3.12126 -2.67531,-0.72376 -5.39395,-1.08572 -8.15557,-1.08572 z m 9.42733,23.53293 a 10.607332,10.607332 0 0 1 0.0377,0.894 10.607332,10.607332 0 0 1 -2.74402,7.11895 c 0.18495,0.15315 0.36135,0.31356 0.52865,0.48059 0.94932,0.85945 1.42369,1.9673 1.42369,3.32434 0,1.85462 -0.84154,3.34741 -2.5244,4.47828 -1.63971,1.13087 -4.14234,1.69654 -7.50806,1.69654 -2.71848,0 -5.4366,-0.47531 -8.155062,-1.42524 -2.675321,-0.99516 -4.941021,-2.26127 -6.796484,-3.79925 l -2.912484,6.85281 c 1.898613,1.71892 4.4661,3.09837 7.702372,4.13877 3.279424,1.0404 6.666478,1.56063 10.161658,1.56063 3.96982,0 7.33543,-0.63306 10.09705,-1.89963 2.76162,-1.26657 4.81132,-2.96306 6.14898,-5.08909 1.38082,-2.12604 2.07119,-4.50051 2.07119,-7.12412 0,-3.07596 -0.77667,-5.51885 -2.33009,-7.32823 -1.43959,-1.72472 -3.17302,-3.01774 -5.20071,-3.87935 z" /><g
         id="g19"
         style="display:inline"
         transform="matrix(0.9219265,0,0,0.9219265,-46.794747,103.3495)"><circle
           style="mix-blend-mode:normal;fill:none;fill-opacity:1;fill-rule:nonzero;stroke:#cee1fb;stroke-width:2.44054;stroke-dasharray:none;stroke-opacity:1"
           id="circle17"
           r="8.6331959"
           cy="53.368725"
           cx="106.78597" /><circle
           style="mix-blend-mode:normal;fill:#cee1fb;fill-opacity:1;fill-rule:nonzero;stroke:none;stroke-width:0.831926;stroke-dasharray:none;stroke-opacity:1"
           id="circle18"
           r="4.1491518"
           cy="53.368725"
           cx="106.78597" /><path
           style="fill:none;fill-opacity:1;fill-rule:nonzero;stroke:#cee1fb;stroke-width:2.44054;stroke-dasharray:none;stroke-opacity:1"
           d="m 106.79584,53.368725 -0.005,-4.316599 -0.005,-4.316599 m -0.005,8.62465 -3.73579,2.16263 -3.735784,2.16263 m 7.471574,-4.308164 3.74078,2.153969 3.74078,2.153969"
           id="path18" /></g><path
         d="m 21.284986,152.14435 q 3.754077,1.28919 5.954743,4.34253 2.200665,2.98549 2.200665,7.46372 0,6.17453 -4.530782,9.56713 -4.530782,3.32475 -13.203993,3.32475 H -10.81884 v -47.49641 h 21.22995 q 8.025957,0 12.362562,3.32475 4.336605,3.25689 4.336605,9.02432 0,3.5283 -1.55341,6.24238 -1.553411,2.71408 -4.271881,4.20683 z M -2.4045299,136.26697 v 13.09544 H 9.5049535 q 4.4013315,0 6.7314475,-1.62844 2.394842,-1.6963 2.394842,-4.88535 0,-3.2569 -2.394842,-4.88534 -2.330116,-1.69631 -6.7314475,-1.69631 z m 13.5923449,33.65461 q 9.773545,0 9.773545,-6.85306 0,-6.85305 -9.773545,-6.85305 H -2.4045299 v 13.70611 z"
         id="path20"
         style="font-weight:600;font-size:66.2703px;font-family:'Montserrat Alternates';-inkscape-font-specification:'Montserrat Alternates Semi-Bold';fill:#babafa;fill-opacity:1;stroke-width:0.690314"
         aria-label="B" /></g></g></svg>
