<?xml version="1.0" encoding="UTF-8" standalone="no"?>
<!-- Created with Inkscape (http://www.inkscape.org/) -->

<svg
   width="402.57098mm"
   height="201.61264mm"
   viewBox="0 0 402.57095 201.61264"
   version="1.1"
   id="svg1"
   xmlns="http://www.w3.org/2000/svg"
   xmlns:svg="http://www.w3.org/2000/svg">
  <defs
     id="defs1" />
  <g
     id="layer13"
     transform="translate(-223.7312,-63.944601)">
    <g
       id="layer5-1"
       transform="matrix(3.3167843,0,0,3.3167843,-546.48598,-378.98575)">
      <path
         style="font-weight:500;font-size:7.54427px;font-family:Montserrat;-inkscape-font-specification:'Montserrat Medium';fill:#929290;stroke-width:0.711062"
         d="m 232.21805,194.26722 v -5.28099 h 2.3689 q 0.91285,0 1.40323,0.36967 0.49038,0.36213 0.49038,0.99585 0,0.43002 -0.19615,0.72425 -0.18861,0.29422 -0.51301,0.45265 -0.32441,0.15843 -0.70162,0.15843 l 0.1358,-0.22633 q 0.45265,0 0.79969,0.15843 0.34704,0.15843 0.55073,0.46775 0.2037,0.30177 0.2037,0.75443 0,0.67898 -0.51301,1.05619 -0.50547,0.36967 -1.50886,0.36967 z m 0.75442,-0.61108 h 1.73519 q 0.62617,0 0.95812,-0.21124 0.33195,-0.21124 0.33195,-0.6639 0,-0.4602 -0.33195,-0.67144 -0.33195,-0.21124 -0.95812,-0.21124 h -1.80309 v -0.61108 h 1.61448 q 0.57336,0 0.89022,-0.21124 0.31686,-0.21124 0.31686,-0.63372 0,-0.42248 -0.31686,-0.63372 -0.31686,-0.21124 -0.89022,-0.21124 h -1.54658 z m 4.95659,0.61108 v -5.28099 h 2.05958 q 1.02603,0 1.61448,0.49038 0.58845,0.48283 0.58845,1.35043 0,0.57336 -0.26405,0.98829 -0.26405,0.4074 -0.75443,0.62618 -0.49037,0.21878 -1.18444,0.21878 h -1.64466 l 0.3395,-0.34703 v 1.95396 z m 3.53072,0 -1.34288,-1.91624 h 0.80723 l 1.35797,1.91624 z m -2.77629,-1.87852 -0.3395,-0.36967 h 1.62202 q 0.72425,0 1.09392,-0.30931 0.37721,-0.31686 0.37721,-0.88268 0,-0.56583 -0.37721,-0.87514 -0.36967,-0.30932 -1.09392,-0.30932 h -1.62202 l 0.3395,-0.37721 z m 4.73025,1.87852 v -5.28099 h 0.75442 v 5.28099 z m 1.53902,0 2.39154,-5.28099 h 0.74688 l 2.39908,5.28099 h -0.79215 l -2.13503,-4.85851 h 0.30177 l -2.13503,4.85851 z m 1.01848,-1.32025 0.2037,-0.60354 h 2.97244 l 0.21878,0.60354 z m 5.30363,1.32025 v -5.28099 h 0.61863 l 3.49299,4.33796 h -0.3244 v -4.33796 h 0.75443 v 5.28099 h -0.61863 l -3.493,-4.33795 h 0.3244 v 4.33795 z m 5.85435,-3.24403 -0.0453,-2.03696 h 0.63372 l -0.0528,2.03696 z m 3.39492,3.30439 q -0.60354,0 -1.15428,-0.18107 -0.55073,-0.1886 -0.86759,-0.48283 l 0.27914,-0.58845 q 0.30177,0.26405 0.76952,0.43757 0.46774,0.17351 0.97321,0.17351 0.4602,0 0.74688,-0.10562 0.28668,-0.10562 0.42248,-0.28668 0.1358,-0.1886 0.1358,-0.42248 0,-0.27159 -0.18107,-0.43757 -0.17352,-0.16597 -0.4602,-0.26404 -0.27914,-0.10562 -0.61863,-0.18107 -0.33949,-0.0754 -0.68653,-0.17352 -0.33949,-0.10561 -0.62617,-0.26405 -0.27914,-0.15842 -0.45266,-0.42247 -0.17352,-0.2716 -0.17352,-0.69408 0,-0.40739 0.21124,-0.74688 0.21879,-0.34704 0.6639,-0.55073 0.45266,-0.21124 1.14673,-0.21124 0.4602,0 0.91286,0.12071 0.45265,0.12071 0.7846,0.34703 l -0.24896,0.60355 q -0.33949,-0.22633 -0.71671,-0.32441 -0.37721,-0.10562 -0.73179,-0.10562 -0.44511,0 -0.73179,0.11317 -0.28669,0.11316 -0.42248,0.30177 -0.12826,0.1886 -0.12826,0.42248 0,0.27913 0.17352,0.44511 0.18106,0.16597 0.4602,0.26405 0.28668,0.0981 0.62618,0.18106 0.33949,0.0754 0.67898,0.17352 0.34704,0.0981 0.62618,0.2565 0.28668,0.15843 0.4602,0.42248 0.17351,0.26405 0.17351,0.67899 0,0.39984 -0.21878,0.74688 -0.21878,0.33949 -0.67898,0.55073 -0.45266,0.2037 -1.14673,0.2037 z m 6.71439,0 q -0.60354,0 -1.15427,-0.18107 -0.55073,-0.1886 -0.86759,-0.48283 l 0.27913,-0.58845 q 0.30177,0.26405 0.76952,0.43757 0.46774,0.17351 0.97321,0.17351 0.4602,0 0.74688,-0.10562 0.28669,-0.10562 0.42248,-0.28668 0.1358,-0.1886 0.1358,-0.42248 0,-0.27159 -0.18106,-0.43757 -0.17352,-0.16597 -0.4602,-0.26404 -0.27914,-0.10562 -0.61863,-0.18107 -0.3395,-0.0754 -0.68653,-0.17352 -0.33949,-0.10561 -0.62618,-0.26405 -0.27914,-0.15842 -0.45265,-0.42247 -0.17352,-0.2716 -0.17352,-0.69408 0,-0.40739 0.21124,-0.74688 0.21878,-0.34704 0.66389,-0.55073 0.45266,-0.21124 1.14673,-0.21124 0.4602,0 0.91286,0.12071 0.45266,0.12071 0.7846,0.34703 l -0.24896,0.60355 q -0.33949,-0.22633 -0.7167,-0.32441 -0.37722,-0.10562 -0.7318,-0.10562 -0.44511,0 -0.73179,0.11317 -0.28668,0.11316 -0.42248,0.30177 -0.12825,0.1886 -0.12825,0.42248 0,0.27913 0.17352,0.44511 0.18106,0.16597 0.4602,0.26405 0.28668,0.0981 0.62617,0.18106 0.33949,0.0754 0.67898,0.17352 0.34704,0.0981 0.62618,0.2565 0.28668,0.15843 0.4602,0.42248 0.17352,0.26405 0.17352,0.67899 0,0.39984 -0.21879,0.74688 -0.21878,0.33949 -0.67898,0.55073 -0.45266,0.2037 -1.14673,0.2037 z m 3.14596,-0.0603 v -5.28099 h 0.75443 v 5.28099 z m 2.33873,0 v -5.28099 h 0.61863 l 2.3689,3.99092 h -0.33195 l 2.33872,-3.99092 h 0.61863 l 0.008,5.28099 h -0.72425 l -0.007,-4.14181 h 0.17352 l -2.08222,3.50054 h -0.34703 l -2.09731,-3.50054 h 0.18861 v 4.14181 z m 7.20477,0 v -5.28099 h 2.05959 q 0.69407,0 1.18445,0.21878 0.49038,0.21879 0.75443,0.63372 0.26404,0.41493 0.26404,0.9883 0,0.57336 -0.26404,0.9883 -0.26405,0.40739 -0.75443,0.63372 -0.49038,0.21878 -1.18445,0.21878 h -1.64465 l 0.33949,-0.35458 v 1.95397 z m 0.75443,-1.87853 -0.33949,-0.37721 h 1.62201 q 0.72425,0 1.09392,-0.30932 0.37722,-0.30931 0.37722,-0.87513 0,-0.56582 -0.37722,-0.87514 -0.36967,-0.30931 -1.09392,-0.30931 h -1.62201 l 0.33949,-0.37721 z m 4.61709,1.87853 v -5.28099 h 0.75443 v 4.62463 h 2.85927 v 0.65636 z m 4.4813,0 v -5.28099 h 3.72687 v 0.65635 h -2.97245 v 3.96829 h 3.07807 v 0.65635 z m 0.68652,-2.36136 v -0.64126 h 2.71594 v 0.64126 z m 7.93657,2.42171 q -0.60354,0 -1.15428,-0.18106 -0.55073,-0.18861 -0.86759,-0.48283 l 0.27914,-0.58846 q 0.30177,0.26405 0.76952,0.43757 0.46774,0.17352 0.97321,0.17352 0.4602,0 0.74688,-0.10562 0.28668,-0.10562 0.42248,-0.28668 0.1358,-0.18861 0.1358,-0.42248 0,-0.2716 -0.18107,-0.43757 -0.17351,-0.16597 -0.4602,-0.26405 -0.27913,-0.10562 -0.61863,-0.18106 -0.33949,-0.0754 -0.68653,-0.17352 -0.33949,-0.10562 -0.62617,-0.26405 -0.27914,-0.15843 -0.45266,-0.42248 -0.17351,-0.27159 -0.17351,-0.69407 0,-0.40739 0.21124,-0.74688 0.21878,-0.34704 0.66389,-0.55074 0.45266,-0.21124 1.14673,-0.21124 0.4602,0 0.91286,0.12071 0.45265,0.12071 0.7846,0.34704 l -0.24896,0.60354 q -0.33949,-0.22633 -0.71671,-0.3244 -0.37721,-0.10562 -0.73179,-0.10562 -0.44511,0 -0.73179,0.11316 -0.28669,0.11316 -0.42248,0.30177 -0.12826,0.18861 -0.12826,0.42248 0,0.27914 0.17352,0.44511 0.18107,0.16598 0.4602,0.26405 0.28669,0.0981 0.62618,0.18106 0.33949,0.0754 0.67898,0.17352 0.34704,0.0981 0.62618,0.25651 0.28668,0.15843 0.4602,0.42248 0.17352,0.26405 0.17352,0.67898 0,0.39985 -0.21879,0.74688 -0.21878,0.3395 -0.67898,0.55074 -0.45266,0.20369 -1.14673,0.20369 z m 3.14596,-0.0603 v -5.28099 h 3.72687 v 0.65635 h -2.97244 v 3.96829 h 3.07806 v 0.65635 z m 0.68653,-2.36136 v -0.64126 h 2.71594 v 0.64126 z m 6.72367,2.42171 q -0.60354,0 -1.11656,-0.19615 -0.50546,-0.20369 -0.88267,-0.56582 -0.36967,-0.36967 -0.58091,-0.86004 -0.21124,-0.49038 -0.21124,-1.07883 0,-0.58846 0.21124,-1.07883 0.21124,-0.49038 0.58845,-0.85251 0.37721,-0.36967 0.88268,-0.56582 0.51301,-0.20369 1.11655,-0.20369 0.61109,0 1.1241,0.21124 0.52055,0.20369 0.88268,0.61108 l -0.49038,0.47529 q -0.30177,-0.31686 -0.67899,-0.46774 -0.37721,-0.15843 -0.80723,-0.15843 -0.44511,0 -0.82987,0.15088 -0.37722,0.15089 -0.65635,0.42248 -0.27914,0.2716 -0.43757,0.64881 -0.15089,0.36967 -0.15089,0.80724 0,0.43756 0.15089,0.81478 0.15843,0.36967 0.43757,0.64126 0.27913,0.27159 0.65635,0.42248 0.38476,0.15089 0.82987,0.15089 0.43002,0 0.80723,-0.15089 0.37722,-0.15843 0.67899,-0.48283 l 0.49038,0.47529 q -0.36213,0.40739 -0.88268,0.61863 -0.51301,0.21124 -1.13164,0.21123 z m 3.0177,-0.0603 v -5.28099 h 2.05958 q 1.02603,0 1.61448,0.49037 0.58845,0.48284 0.58845,1.35043 0,0.57336 -0.26405,0.9883 -0.26405,0.40739 -0.75442,0.62617 -0.49038,0.21878 -1.18446,0.21878 h -1.64465 l 0.3395,-0.34703 v 1.95396 z m 3.53072,0 -1.34288,-1.91625 h 0.80723 l 1.35797,1.91625 z m -2.77629,-1.87853 -0.3395,-0.36967 h 1.62202 q 0.72425,0 1.09392,-0.30931 0.37721,-0.31686 0.37721,-0.88268 0,-0.56582 -0.37721,-0.87514 -0.36967,-0.30931 -1.09392,-0.30931 h -1.62202 l 0.3395,-0.37722 z m 4.73025,1.87853 v -5.28099 h 3.72687 v 0.65635 h -2.97244 v 3.96828 h 3.07806 v 0.65636 z m 0.68653,-2.36136 v -0.64126 h 2.71593 v 0.64126 z m 5.41678,2.36136 v -4.62464 h -1.81063 v -0.65635 h 4.36814 v 0.65635 h -1.81063 v 4.62464 z m 6.94826,0.0603 q -0.60354,0 -1.15427,-0.18106 -0.55073,-0.1886 -0.86759,-0.48283 l 0.27914,-0.58845 q 0.30177,0.26405 0.76951,0.43756 0.46775,0.17352 0.97321,0.17352 0.4602,0 0.74689,-0.10562 0.28668,-0.10562 0.42247,-0.28668 0.1358,-0.18861 0.1358,-0.42248 0,-0.27159 -0.18106,-0.43757 -0.17352,-0.16597 -0.4602,-0.26405 -0.27914,-0.10562 -0.61863,-0.18106 -0.33949,-0.0754 -0.68653,-0.17352 -0.33949,-0.10562 -0.62617,-0.26405 -0.27914,-0.15843 -0.45266,-0.42248 -0.17352,-0.27159 -0.17352,-0.69407 0,-0.40739 0.21124,-0.74688 0.21878,-0.34704 0.6639,-0.55073 0.45265,-0.21124 1.14673,-0.21124 0.4602,0 0.91285,0.12071 0.45266,0.1207 0.78461,0.34703 l -0.24896,0.60354 q -0.3395,-0.22632 -0.71671,-0.3244 -0.37721,-0.10562 -0.73179,-0.10562 -0.44512,0 -0.7318,0.11316 -0.28668,0.11317 -0.42248,0.30178 -0.12825,0.1886 -0.12825,0.42247 0,0.27914 0.17352,0.44512 0.18106,0.16597 0.4602,0.26405 0.28668,0.0981 0.62617,0.18106 0.33949,0.0754 0.67899,0.17352 0.34703,0.0981 0.62617,0.2565 0.28668,0.15843 0.4602,0.42248 0.17352,0.26405 0.17352,0.67898 0,0.39985 -0.21878,0.74689 -0.21879,0.33949 -0.67899,0.55073 -0.45265,0.20369 -1.14673,0.20369 z m 4.11918,-0.0603 v -4.62464 h -1.81063 v -0.65635 h 4.36813 v 0.65635 h -1.81062 v 4.62464 z m 5.68837,0.0603 q -0.60354,0 -1.12409,-0.20369 -0.51301,-0.2037 -0.89023,-0.56582 -0.37721,-0.36967 -0.58845,-0.86005 -0.21124,-0.49037 -0.21124,-1.07128 0,-0.58091 0.21124,-1.07129 0.21124,-0.49038 0.58845,-0.8525 0.37722,-0.36967 0.89023,-0.57337 0.51301,-0.20369 1.12409,-0.20369 0.60355,0 1.10901,0.20369 0.51301,0.19615 0.89023,0.56582 0.38475,0.36213 0.58845,0.85251 0.21124,0.49037 0.21124,1.07883 0,0.58845 -0.21124,1.07883 -0.2037,0.49037 -0.58845,0.86004 -0.37722,0.36213 -0.89023,0.56582 -0.50546,0.19615 -1.10901,0.19615 z m 0,-0.67144 q 0.43757,0 0.80724,-0.15088 0.37721,-0.15089 0.64881,-0.42248 0.27914,-0.27914 0.43002,-0.64881 0.15843,-0.36967 0.15843,-0.80723 0,-0.43757 -0.15843,-0.80724 -0.15088,-0.36967 -0.43002,-0.64126 -0.2716,-0.27914 -0.64881,-0.43003 -0.36967,-0.15088 -0.80724,-0.15088 -0.44511,0 -0.82232,0.15088 -0.36967,0.15089 -0.64881,0.43003 -0.27914,0.27159 -0.43757,0.64126 -0.15088,0.36967 -0.15088,0.80724 0,0.43756 0.15088,0.80723 0.15843,0.36967 0.43757,0.64881 0.27914,0.27159 0.64881,0.42248 0.37721,0.15088 0.82232,0.15088 z m 3.9532,0.61109 v -5.28099 h 2.05959 q 1.02602,0 1.61447,0.49038 0.58846,0.48283 0.58846,1.35042 0,0.57337 -0.26405,0.9883 -0.26405,0.40739 -0.75443,0.62618 -0.49038,0.21878 -1.18445,0.21878 h -1.64465 l 0.33949,-0.34704 v 1.95397 z m 3.53072,0 -1.34288,-1.91624 h 0.80724 l 1.35797,1.91624 z m -2.77629,-1.87852 -0.33949,-0.36967 h 1.62202 q 0.72425,0 1.09392,-0.30932 0.37721,-0.31686 0.37721,-0.88268 0,-0.56582 -0.37721,-0.87513 -0.36967,-0.30932 -1.09392,-0.30932 h -1.62202 l 0.33949,-0.37721 z m 4.73025,1.87852 v -5.28099 h 3.72687 v 0.65635 h -2.97244 v 3.96829 h 3.07806 v 0.65635 z m 0.68653,-2.36136 v -0.64126 h 2.71594 v 0.64126 z"
         id="text9-7-1"
         aria-label="BRIAN'S SIMPLE SECRET STORE" />
      <path
         d="m 339.84918,154.24575 q 6.28573,0.77562 9.5906,4.26591 3.30487,3.49028 3.30487,8.72571 0,3.94273 -2.00884,7.17448 -2.00884,3.23174 -6.09133,5.17079 -4.01768,1.87441 -9.84981,1.87441 -4.86011,0 -9.39621,-1.35733 -4.47128,-1.42197 -7.64655,-3.87809 l 3.62887,-6.52813 q 2.46245,2.06832 5.96173,3.29638 3.56407,1.16343 7.32255,1.16343 4.4713,0 6.99856,-1.80978 2.59205,-1.87441 2.59205,-5.04152 0,-3.16712 -2.46246,-4.91226 -2.39765,-1.80978 -7.38735,-1.80978 h -4.14729 v -5.7525 l 10.30342,-12.216 h -20.60684 v -7.04521 h 30.91026 v 5.62324 z"
         id="text8-6-7"
         style="font-weight:600;font-size:64.7181px;font-family:'Montserrat Alternates';-inkscape-font-specification:'Montserrat Alternates Semi-Bold';fill:none;stroke:#96b1c4;stroke-width:1.69439;stroke-opacity:1"
         aria-label="3" />
      <g
         id="g18-8-0"
         transform="translate(187.90499,104.6002)">
        <path
           id="text10-3-2"
           mask="none"
           style="font-weight:600;font-size:66.2703px;font-family:'Montserrat Alternates';-inkscape-font-specification:'Montserrat Alternates Semi-Bold';fill:#96b1c4;fill-opacity:1;stroke-width:0.690314"
           d="m 107.9283,28.941903 c -3.96984,0 -7.33544,0.633571 -10.097062,1.900142 -2.718468,1.266571 -4.768169,2.985009 -6.148979,5.156274 -1.337659,2.12603 -2.006079,4.50102 -2.006079,7.12463 0,3.121194 0.754717,5.609005 2.264978,7.463627 1.240174,1.444534 2.659395,2.586554 4.257105,3.425631 a 10.607332,10.607332 0 0 1 -0.01964,-0.643372 10.607332,10.607332 0 0 1 3.069581,-7.46311 c -0.815087,-0.839468 -1.222665,-1.902945 -1.222665,-3.189986 0,-1.945091 0.798117,-3.505267 2.394691,-4.681368 1.6397,-1.176102 4.1209,-1.764233 7.44347,-1.764233 2.02806,0 4.12117,0.316527 6.27869,0.949812 2.15751,0.633286 4.22866,1.560406 6.21357,2.781743 l 2.65359,-6.852812 c -1.94177,-1.357041 -4.25036,-2.397502 -6.92568,-3.121256 -2.67531,-0.723756 -5.39395,-1.085722 -8.15557,-1.085722 z m 9.42733,23.53293 a 10.607332,10.607332 0 0 1 0.0377,0.894002 10.607332,10.607332 0 0 1 -2.74402,7.118946 c 0.18495,0.153152 0.36135,0.313562 0.52865,0.480591 0.94932,0.859458 1.42369,1.967304 1.42369,3.324344 0,1.854622 -0.84154,3.347413 -2.5244,4.47828 -1.63971,1.130867 -4.14234,1.696537 -7.50806,1.696537 -2.71848,0 -5.4366,-0.475307 -8.155062,-1.425236 -2.675321,-0.995162 -4.941021,-2.261272 -6.796484,-3.799251 l -2.912484,6.852812 c 1.898613,1.718918 4.4661,3.098367 7.702372,4.138765 3.279424,1.040398 6.666478,1.560628 10.161658,1.560628 3.96982,0 7.33543,-0.633054 10.09705,-1.899625 2.76162,-1.266571 4.81132,-2.963065 6.14898,-5.089095 1.38082,-2.126031 2.07119,-4.500503 2.07119,-7.124113 0,-3.075959 -0.77667,-5.518848 -2.33009,-7.328235 -1.43959,-1.724722 -3.17302,-3.017737 -5.20071,-3.87935 z" />
        <g
           id="g14-8-9"
           style="display:inline"
           transform="matrix(0.9219265,0,0,0.9219265,8.3371549,4.1666833)">
          <circle
             style="mix-blend-mode:normal;fill:none;fill-opacity:1;fill-rule:nonzero;stroke:#96b1c4;stroke-width:2;stroke-dasharray:none;stroke-opacity:1"
             id="circle11-6-7"
             r="8.6331959"
             cy="53.368725"
             cx="106.78597" />
          <circle
             style="mix-blend-mode:normal;fill:#96b1c4;fill-opacity:1;fill-rule:nonzero;stroke:none;stroke-width:0.637717;stroke-dasharray:none;stroke-opacity:1"
             id="circle12-1-4"
             r="3.180552"
             cy="53.368725"
             cx="106.78597" />
          <path
             style="fill:none;fill-opacity:1;fill-rule:nonzero;stroke:#96b1c4;stroke-width:2;stroke-dasharray:none;stroke-opacity:1"
             d="m 106.79584,53.368725 -0.005,-4.316599 -0.005,-4.316599 m -0.005,8.62465 -3.73579,2.16263 -3.735784,2.16263 m 7.471574,-4.308164 3.74078,2.153969 3.74078,2.153969"
             id="path12-9-1" />
        </g>
      </g>
      <path
         d="m 264.32188,157.56173 q 3.75408,1.28919 5.95474,4.34253 2.20067,2.98549 2.20067,7.46372 0,6.17454 -4.53079,9.56714 -4.53078,3.32475 -13.20399,3.32475 H 232.21805 V 134.76345 H 253.448 q 8.02596,0 12.36256,3.32475 4.33661,3.2569 4.33661,9.02432 0,3.52831 -1.55341,6.24239 -1.55341,2.71408 -4.27188,4.20682 z m -23.68952,-15.87737 v 13.09544 h 11.90949 q 4.40133,0 6.73144,-1.62845 2.39485,-1.6963 2.39485,-4.88534 0,-3.2569 -2.39485,-4.88535 -2.33011,-1.6963 -6.73144,-1.6963 z m 13.59235,33.6546 q 9.77354,0 9.77354,-6.85305 0,-6.85306 -9.77354,-6.85306 h -13.59235 v 13.70611 z"
         id="text7-6-0"
         style="font-weight:600;font-size:66.2703px;font-family:'Montserrat Alternates';-inkscape-font-specification:'Montserrat Alternates Semi-Bold';fill:#614f97;fill-opacity:1;stroke-width:0.690314"
         aria-label="B" />
    </g>
  </g>
</svg>
