<?xml version="1.0" encoding="UTF-8" standalone="no"?>
<!-- Created with Inkscape (http://www.inkscape.org/) -->

<svg
   width="122.0266mm"
   height="60.785583mm"
   viewBox="0 0 122.02659 60.785584"
   version="1.1"
   id="svg1"
   xml:space="preserve"
   xmlns="http://www.w3.org/2000/svg"
   xmlns:svg="http://www.w3.org/2000/svg"><defs
     id="defs1" /><g
     id="layer1"
     transform="translate(10.818845,-128.12472)"><g
       id="layer7"><path
         style="font-weight:500;font-size:7.54427px;font-family:Montserrat;-inkscape-font-specification:'Montserrat Medium';fill:#666664;fill-opacity:1;stroke-width:0.711062"
         d="m -10.818845,188.84984 v -5.28099 h 2.368901 q 0.912856,0 1.403234,0.36967 0.490377,0.36212 0.490377,0.99584 0,0.43003 -0.196151,0.72425 -0.188606,0.29423 -0.51301,0.45266 -0.324404,0.15843 -0.701617,0.15843 l 0.135797,-0.22633 q 0.452656,0 0.799692,0.15843 0.347037,0.15843 0.550732,0.46774 0.203695,0.30177 0.203695,0.75443 0,0.67898 -0.51301,1.0562 -0.505466,0.36967 -1.508854,0.36967 z m 0.754427,-0.61109 h 1.735182 q 0.626174,0 0.958122,-0.21124 0.331948,-0.21124 0.331948,-0.66389 0,-0.4602 -0.331948,-0.67144 -0.331948,-0.21124 -0.958122,-0.21124 h -1.803081 v -0.61109 h 1.614474 q 0.573365,0 0.890224,-0.21124 0.316859,-0.21124 0.316859,-0.63372 0,-0.42248 -0.316859,-0.63372 -0.316859,-0.21124 -0.890224,-0.21124 h -1.546575 z m 4.956585,0.61109 v -5.28099 h 2.059586 q 1.026021,0 1.614474,0.49038 0.588453,0.48283 0.588453,1.35042 0,0.57336 -0.26405,0.9883 -0.264049,0.40739 -0.754427,0.62617 -0.490377,0.21879 -1.18445,0.21879 h -1.644651 l 0.339492,-0.34704 v 1.95397 z m 3.530718,0 -1.34288,-1.91625 h 0.807237 l 1.357969,1.91625 z m -2.776291,-1.87853 -0.339492,-0.36966 h 1.622018 q 0.72425,0 1.093919,-0.30932 0.377214,-0.31686 0.377214,-0.88268 0,-0.56582 -0.377214,-0.87514 -0.369669,-0.30931 -1.093919,-0.30931 h -1.622018 l 0.339492,-0.37721 z m 4.730252,1.87853 v -5.28099 h 0.754427 v 5.28099 z m 1.539027,0 2.391533,-5.28099 h 0.746883 l 2.399078,5.28099 H 6.661218 L 4.52619,183.99133 h 0.301771 l -2.135029,4.85851 z m 1.018476,-1.32025 0.203695,-0.60354 h 2.972443 l 0.218784,0.60354 z m 5.303626,1.32025 v -5.28099 h 0.61863 l 3.492997,4.33795 h -0.324404 v -4.33795 h 0.754427 v 5.28099 h -0.61863 l -3.492997,-4.33796 h 0.324404 v 4.33796 z m 5.854354,-3.24404 -0.04527,-2.03695 h 0.633719 l -0.05281,2.03695 z m 3.394916,3.30439 q -0.603541,0 -1.154273,-0.18106 -0.550732,-0.18861 -0.867591,-0.48283 l 0.279138,-0.58846 q 0.301771,0.26405 0.769515,0.43757 0.467745,0.17352 0.973211,0.17352 0.460201,0 0.746883,-0.10562 0.286682,-0.10562 0.422479,-0.28668 0.135797,-0.18861 0.135797,-0.42248 0,-0.2716 -0.181063,-0.43757 -0.173518,-0.16597 -0.4602,-0.26405 -0.279138,-0.10562 -0.61863,-0.18106 -0.339492,-0.0754 -0.686529,-0.17352 -0.339492,-0.10562 -0.626174,-0.26405 -0.279138,-0.15843 -0.452656,-0.42248 -0.173519,-0.27159 -0.173519,-0.69407 0,-0.40739 0.21124,-0.74688 0.218784,-0.34704 0.663896,-0.55074 0.452656,-0.21123 1.146729,-0.21123 0.4602,0 0.912856,0.1207 0.452657,0.12071 0.784604,0.34704 l -0.24896,0.60354 q -0.339493,-0.22633 -0.716706,-0.3244 -0.377214,-0.10562 -0.731794,-0.10562 -0.445112,0 -0.731794,0.11316 -0.286683,0.11317 -0.42248,0.30177 -0.128252,0.18861 -0.128252,0.42248 0,0.27914 0.173518,0.44511 0.181062,0.16598 0.4602,0.26405 0.286683,0.0981 0.626175,0.18106 0.339492,0.0754 0.678984,0.17352 0.347037,0.0981 0.626175,0.25651 0.286682,0.15843 0.4602,0.42248 0.173518,0.26405 0.173518,0.67898 0,0.39985 -0.218784,0.74688 -0.218783,0.3395 -0.678984,0.55074 -0.452656,0.20369 -1.146729,0.20369 z m 6.714394,0 q -0.603542,0 -1.154274,-0.18106 -0.550731,-0.18861 -0.867591,-0.48283 l 0.279138,-0.58846 q 0.301771,0.26405 0.769516,0.43757 0.467745,0.17352 0.973211,0.17352 0.4602,0 0.746882,-0.10562 0.286683,-0.10562 0.42248,-0.28668 0.135796,-0.18861 0.135796,-0.42248 0,-0.2716 -0.181062,-0.43757 -0.173518,-0.16597 -0.4602,-0.26405 -0.279138,-0.10562 -0.618631,-0.18106 -0.339492,-0.0754 -0.686528,-0.17352 -0.339492,-0.10562 -0.626175,-0.26405 -0.279138,-0.15843 -0.452656,-0.42248 -0.173518,-0.27159 -0.173518,-0.69407 0,-0.40739 0.21124,-0.74688 0.218783,-0.34704 0.663895,-0.55074 0.452656,-0.21123 1.146729,-0.21123 0.460201,0 0.912857,0.1207 0.452656,0.12071 0.784604,0.34704 l -0.248961,0.60354 q -0.339492,-0.22633 -0.716705,-0.3244 -0.377214,-0.10562 -0.731795,-0.10562 -0.445112,0 -0.731794,0.11316 -0.286682,0.11317 -0.422479,0.30177 -0.128253,0.18861 -0.128253,0.42248 0,0.27914 0.173519,0.44511 0.181062,0.16598 0.4602,0.26405 0.286682,0.0981 0.626175,0.18106 0.339492,0.0754 0.678984,0.17352 0.347036,0.0981 0.626174,0.25651 0.286682,0.15843 0.460201,0.42248 0.173518,0.26405 0.173518,0.67898 0,0.39985 -0.218784,0.74688 -0.218784,0.3395 -0.678984,0.55074 -0.452656,0.20369 -1.146729,0.20369 z m 3.145962,-0.0603 v -5.28099 h 0.754427 v 5.28099 z m 2.338723,0 v -5.28099 h 0.61863 l 2.368901,3.99092 h -0.331948 l 2.338723,-3.99092 h 0.618631 l 0.0075,5.28099 h -0.72425 l -0.0075,-4.1418 h 0.173518 l -2.082219,3.50054 h -0.347036 l -2.097307,-3.50054 h 0.188607 v 4.1418 z m 7.204776,0 v -5.28099 h 2.059586 q 0.694073,0 1.184451,0.21879 0.490377,0.21878 0.754427,0.63371 0.264049,0.41494 0.264049,0.9883 0,0.57337 -0.264049,0.9883 -0.26405,0.40739 -0.754427,0.63372 -0.490378,0.21879 -1.184451,0.21879 h -1.644651 l 0.339492,-0.35458 v 1.95396 z m 0.754427,-1.87852 -0.339492,-0.37721 h 1.622018 q 0.72425,0 1.093919,-0.30932 0.377214,-0.30931 0.377214,-0.87513 0,-0.56583 -0.377214,-0.87514 -0.369669,-0.30932 -1.093919,-0.30932 h -1.622018 l 0.339492,-0.37721 z m 4.617091,1.87852 v -5.28099 h 0.754427 v 4.62464 h 2.859273 v 0.65635 z m 4.4813,0 v -5.28099 h 3.72687 v 0.65635 h -2.97245 v 3.96829 h 3.07807 v 0.65635 z m 0.68652,-2.36135 v -0.64127 h 2.71594 v 0.64127 z m 7.93657,2.42171 q -0.60354,0 -1.15428,-0.18107 -0.55073,-0.1886 -0.86759,-0.48283 l 0.27914,-0.58845 q 0.30177,0.26405 0.76952,0.43756 0.46774,0.17352 0.97321,0.17352 0.4602,0 0.74688,-0.10562 0.28668,-0.10562 0.42248,-0.28668 0.1358,-0.18861 0.1358,-0.42248 0,-0.27159 -0.18107,-0.43757 -0.17351,-0.16597 -0.4602,-0.26404 -0.27913,-0.10562 -0.61863,-0.18107 -0.33949,-0.0754 -0.68653,-0.17352 -0.33949,-0.10562 -0.62617,-0.26405 -0.27914,-0.15842 -0.45266,-0.42247 -0.17351,-0.2716 -0.17351,-0.69408 0,-0.40739 0.21124,-0.74688 0.21878,-0.34704 0.66389,-0.55073 0.45266,-0.21124 1.14673,-0.21124 0.4602,0 0.91286,0.12071 0.45265,0.12071 0.7846,0.34703 l -0.24896,0.60355 q -0.33949,-0.22633 -0.71671,-0.32441 -0.37721,-0.10562 -0.73179,-0.10562 -0.44511,0 -0.73179,0.11317 -0.28669,0.11316 -0.42248,0.30177 -0.12826,0.1886 -0.12826,0.42248 0,0.27913 0.17352,0.44511 0.18107,0.16597 0.4602,0.26405 0.28669,0.0981 0.62618,0.18106 0.33949,0.0754 0.67898,0.17352 0.34704,0.0981 0.62618,0.2565 0.28668,0.15843 0.4602,0.42248 0.17352,0.26405 0.17352,0.67899 0,0.39984 -0.21879,0.74688 -0.21878,0.33949 -0.67898,0.55073 -0.45266,0.2037 -1.14673,0.2037 z m 3.14596,-0.0603 v -5.28099 h 3.72687 v 0.65635 h -2.97244 v 3.96828 h 3.07806 v 0.65636 z m 0.68653,-2.36136 v -0.64126 h 2.71594 v 0.64126 z m 6.72367,2.42171 q -0.60354,0 -1.11656,-0.19615 -0.50546,-0.2037 -0.88267,-0.56582 -0.36967,-0.36967 -0.58091,-0.86005 -0.21124,-0.49038 -0.21124,-1.07883 0,-0.58845 0.21124,-1.07883 0.21124,-0.49038 0.58845,-0.8525 0.37721,-0.36967 0.88268,-0.56582 0.51301,-0.2037 1.11655,-0.2037 0.61109,0 1.1241,0.21124 0.52055,0.2037 0.88268,0.61109 l -0.49038,0.47529 q -0.30177,-0.31686 -0.67899,-0.46775 -0.37721,-0.15843 -0.80723,-0.15843 -0.44511,0 -0.82987,0.15089 -0.37722,0.15088 -0.65635,0.42248 -0.27914,0.27159 -0.43757,0.6488 -0.15089,0.36967 -0.15089,0.80724 0,0.43757 0.15089,0.81478 0.15843,0.36967 0.43757,0.64127 0.27913,0.27159 0.65635,0.42247 0.38476,0.15089 0.82987,0.15089 0.43002,0 0.80723,-0.15089 0.37722,-0.15842 0.67899,-0.48283 l 0.49038,0.47529 q -0.36213,0.40739 -0.88268,0.61863 -0.51301,0.21124 -1.13164,0.21124 z m 3.0177,-0.0603 v -5.28099 h 2.05958 q 1.02603,0 1.61448,0.49038 0.58845,0.48283 0.58845,1.35042 0,0.57337 -0.26405,0.9883 -0.26405,0.40739 -0.75442,0.62618 -0.49038,0.21878 -1.18446,0.21878 h -1.64465 l 0.3395,-0.34704 V 188.85 Z m 3.53072,0 -1.34288,-1.91625 h 0.80723 l 1.35797,1.91625 z m -2.77629,-1.87852 -0.3395,-0.36967 h 1.62202 q 0.72425,0 1.09392,-0.30932 0.37721,-0.31686 0.37721,-0.88268 0,-0.56582 -0.37721,-0.87513 -0.36967,-0.30932 -1.09392,-0.30932 h -1.62202 l 0.3395,-0.37721 z m 4.73025,1.87852 v -5.28099 h 3.72687 v 0.65635 h -2.97244 v 3.96829 h 3.07806 V 188.85 Z m 0.68653,-2.36136 v -0.64126 h 2.71593 v 0.64126 z m 5.41678,2.36136 v -4.62464 h -1.81063 v -0.65635 h 4.36814 v 0.65635 h -1.81063 V 188.85 Z m 6.94826,0.0603 q -0.60354,0 -1.15427,-0.18106 -0.55073,-0.18861 -0.86759,-0.48284 l 0.27914,-0.58845 q 0.30177,0.26405 0.76951,0.43757 0.46775,0.17352 0.97321,0.17352 0.4602,0 0.74689,-0.10562 0.28668,-0.10562 0.42247,-0.28668 0.1358,-0.18861 0.1358,-0.42248 0,-0.2716 -0.18106,-0.43757 -0.17352,-0.16598 -0.4602,-0.26405 -0.27914,-0.10562 -0.61863,-0.18106 -0.33949,-0.0754 -0.68653,-0.17352 -0.33949,-0.10562 -0.62617,-0.26405 -0.27914,-0.15843 -0.45266,-0.42248 -0.17352,-0.27159 -0.17352,-0.69407 0,-0.40739 0.21124,-0.74689 0.21878,-0.34703 0.6639,-0.55073 0.45265,-0.21124 1.14673,-0.21124 0.4602,0 0.91285,0.12071 0.45266,0.12071 0.78461,0.34704 l -0.24896,0.60354 q -0.3395,-0.22633 -0.71671,-0.3244 -0.37721,-0.10562 -0.73179,-0.10562 -0.44512,0 -0.7318,0.11316 -0.28668,0.11316 -0.42248,0.30177 -0.12825,0.18861 -0.12825,0.42248 0,0.27914 0.17352,0.44511 0.18106,0.16598 0.4602,0.26405 0.28668,0.0981 0.62617,0.18106 0.33949,0.0754 0.67899,0.17352 0.34703,0.0981 0.62617,0.25651 0.28668,0.15843 0.4602,0.42248 0.17352,0.26405 0.17352,0.67898 0,0.39985 -0.21878,0.74688 -0.21879,0.3395 -0.67899,0.55073 -0.45265,0.2037 -1.14673,0.2037 z m 4.11918,-0.0603 v -4.62464 h -1.81063 v -0.65635 h 4.36813 v 0.65635 h -1.81062 V 188.85 Z m 5.68837,0.0603 q -0.60354,0 -1.12409,-0.20369 -0.51301,-0.2037 -0.89023,-0.56583 -0.37721,-0.36966 -0.58845,-0.86004 -0.21124,-0.49038 -0.21124,-1.07129 0,-0.58091 0.21124,-1.07128 0.21124,-0.49038 0.58845,-0.85251 0.37722,-0.36967 0.89023,-0.57336 0.51301,-0.2037 1.12409,-0.2037 0.60355,0 1.10901,0.2037 0.51301,0.19615 0.89023,0.56582 0.38475,0.36212 0.58845,0.8525 0.211242,0.49038 0.211242,1.07883 0,0.58845 -0.211242,1.07883 -0.2037,0.49038 -0.58845,0.86005 -0.37722,0.36212 -0.89023,0.56582 -0.50546,0.19615 -1.10901,0.19615 z m 0,-0.67144 q 0.43757,0 0.80724,-0.15089 0.37721,-0.15088 0.64881,-0.42247 0.27914,-0.27914 0.43002,-0.64881 0.15843,-0.36967 0.15843,-0.80724 0,-0.43757 -0.15843,-0.80724 -0.15088,-0.36967 -0.43002,-0.64126 -0.2716,-0.27914 -0.64881,-0.43002 -0.36967,-0.15089 -0.80724,-0.15089 -0.44511,0 -0.82232,0.15089 -0.36967,0.15088 -0.64881,0.43002 -0.27914,0.27159 -0.43757,0.64126 -0.15088,0.36967 -0.15088,0.80724 0,0.43757 0.15088,0.80724 0.15843,0.36967 0.43757,0.64881 0.27914,0.27159 0.64881,0.42247 0.37721,0.15089 0.82232,0.15089 z m 3.953202,0.61109 v -5.28099 h 2.05959 q 1.02602,0 1.61447,0.49037 0.58846,0.48284 0.58846,1.35043 0,0.57336 -0.26405,0.9883 -0.26405,0.40739 -0.75443,0.62617 -0.49038,0.21879 -1.18445,0.21879 h -1.64465 l 0.33949,-0.34704 v 1.95397 z m 3.53072,0 -1.34288,-1.91625 h 0.80724 l 1.35797,1.91625 z m -2.77629,-1.87853 -0.33949,-0.36967 h 1.62202 q 0.72425,0 1.09392,-0.30931 0.37721,-0.31686 0.37721,-0.88268 0,-0.56582 -0.37721,-0.87514 -0.36967,-0.30931 -1.09392,-0.30931 h -1.62202 l 0.33949,-0.37721 z m 4.73025,1.87853 v -5.28099 h 3.72687 v 0.65635 h -2.97244 v 3.96828 h 3.07806 v 0.65636 z m 0.68653,-2.36136 v -0.64126 h 2.71594 v 0.64126 z"
         id="text9"
         aria-label="BRIAN'S SIMPLE SECRET STORE" /><path
         d="m 96.812284,148.82837 q 6.285736,0.77562 9.590606,4.2659 3.30487,3.49029 3.30487,8.72572 0,3.94273 -2.00884,7.17447 -2.00885,3.23175 -6.09133,5.1708 -4.017687,1.87441 -9.849813,1.87441 -4.860106,0 -9.396206,-1.35733 -4.471287,-1.42197 -7.646558,-3.8781 l 3.628874,-6.52813 q 2.462455,2.06832 5.961733,3.29638 3.56407,1.16343 7.322551,1.16343 4.471297,0 6.998555,-1.80978 2.592054,-1.87441 2.592054,-5.04152 0,-3.16711 -2.462458,-4.91225 -2.397651,-1.80978 -7.387354,-1.80978 h -4.147291 v -5.75251 L 97.5251,137.19408 H 76.918255 v -7.04521 h 30.910265 v 5.62324 z"
         id="text8"
         style="font-weight:600;font-size:64.7181px;font-family:'Montserrat Alternates';-inkscape-font-specification:'Montserrat Alternates Semi-Bold';fill:none;stroke:#8fb2cb;stroke-width:3;stroke-dasharray:none;stroke-opacity:1"
         aria-label="3" /><g
         id="g18"
         transform="translate(-55.131902,99.182815)"><path
           id="text10"
           mask="none"
           style="font-weight:600;font-size:66.2703px;font-family:'Montserrat Alternates';-inkscape-font-specification:'Montserrat Alternates Semi-Bold';fill:#8fb2cb;fill-opacity:1;stroke-width:0.690314"
           d="m 107.9283,28.941903 c -3.96984,0 -7.33544,0.633571 -10.097062,1.900142 -2.718468,1.266571 -4.768169,2.985009 -6.148979,5.156274 -1.337659,2.12603 -2.006079,4.50102 -2.006079,7.12463 0,3.121194 0.754717,5.609005 2.264978,7.463627 1.240174,1.444534 2.659395,2.586554 4.257105,3.425631 a 10.607332,10.607332 0 0 1 -0.01964,-0.643372 10.607332,10.607332 0 0 1 3.069581,-7.46311 c -0.815087,-0.839468 -1.222665,-1.902945 -1.222665,-3.189986 0,-1.945091 0.798117,-3.505267 2.394691,-4.681368 1.6397,-1.176102 4.1209,-1.764233 7.44347,-1.764233 2.02806,0 4.12117,0.316527 6.27869,0.949812 2.15751,0.633286 4.22866,1.560406 6.21357,2.781743 l 2.65359,-6.852812 c -1.94177,-1.357041 -4.25036,-2.397502 -6.92568,-3.121256 -2.67531,-0.723756 -5.39395,-1.085722 -8.15557,-1.085722 z m 9.42733,23.53293 a 10.607332,10.607332 0 0 1 0.0377,0.894002 10.607332,10.607332 0 0 1 -2.74402,7.118946 c 0.18495,0.153152 0.36135,0.313562 0.52865,0.480591 0.94932,0.859458 1.42369,1.967304 1.42369,3.324344 0,1.854622 -0.84154,3.347413 -2.5244,4.47828 -1.63971,1.130867 -4.14234,1.696537 -7.50806,1.696537 -2.71848,0 -5.4366,-0.475307 -8.155062,-1.425236 -2.675321,-0.995162 -4.941021,-2.261272 -6.796484,-3.799251 l -2.912484,6.852812 c 1.898613,1.718918 4.4661,3.098367 7.702372,4.138765 3.279424,1.040398 6.666478,1.560628 10.161658,1.560628 3.96982,0 7.33543,-0.633054 10.09705,-1.899625 2.76162,-1.266571 4.81132,-2.963065 6.14898,-5.089095 1.38082,-2.126031 2.07119,-4.500503 2.07119,-7.124113 0,-3.075959 -0.77667,-5.518848 -2.33009,-7.328235 -1.43959,-1.724722 -3.17302,-3.017737 -5.20071,-3.87935 z" /><g
           id="g14-2-8"
           style="display:inline"
           transform="matrix(0.9219265,0,0,0.9219265,8.3371549,4.1666833)"><circle
             style="mix-blend-mode:normal;fill:none;fill-opacity:1;fill-rule:nonzero;stroke:#8fb2cb;stroke-width:2.44054;stroke-dasharray:none;stroke-opacity:1"
             id="circle11-4-2"
             r="8.6331959"
             cy="53.368725"
             cx="106.78597" /><circle
             style="mix-blend-mode:normal;fill:#8fb2cb;fill-opacity:1;fill-rule:nonzero;stroke:none;stroke-width:0.831926;stroke-dasharray:none;stroke-opacity:1"
             id="circle12-6-6"
             r="4.1491518"
             cy="53.368725"
             cx="106.78597" /><path
             style="fill:none;fill-opacity:1;fill-rule:nonzero;stroke:#8fb2cb;stroke-width:2.44054;stroke-dasharray:none;stroke-opacity:1"
             d="m 106.79584,53.368725 -0.005,-4.316599 -0.005,-4.316599 m -0.005,8.62465 -3.73579,2.16263 -3.735784,2.16263 m 7.471574,-4.308164 3.74078,2.153969 3.74078,2.153969"
             id="path12-7-0" /></g></g><path
         d="m 21.284986,152.14435 q 3.754077,1.28919 5.954743,4.34253 2.200665,2.98549 2.200665,7.46372 0,6.17453 -4.530782,9.56713 -4.530782,3.32475 -13.203993,3.32475 H -10.81884 v -47.49641 h 21.22995 q 8.025957,0 12.362562,3.32475 4.336605,3.25689 4.336605,9.02432 0,3.5283 -1.55341,6.24238 -1.553411,2.71408 -4.271881,4.20683 z M -2.4045299,136.26697 v 13.09544 H 9.5049535 q 4.4013315,0 6.7314475,-1.62844 2.394842,-1.6963 2.394842,-4.88535 0,-3.2569 -2.394842,-4.88534 -2.330116,-1.69631 -6.7314475,-1.69631 z m 13.5923449,33.65461 q 9.773545,0 9.773545,-6.85306 0,-6.85305 -9.773545,-6.85305 H -2.4045299 v 13.70611 z"
         id="text7"
         style="font-weight:600;font-size:66.2703px;font-family:'Montserrat Alternates';-inkscape-font-specification:'Montserrat Alternates Semi-Bold';fill:#614f97;fill-opacity:1;stroke-width:0.690314"
         aria-label="B" /></g></g><script
     id="mesh_polyfill"
     type="text/javascript">
!function(){const t=&quot;http://www.w3.org/2000/svg&quot;,e=&quot;http://www.w3.org/1999/xlink&quot;,s=&quot;http://www.w3.org/1999/xhtml&quot;,r=2;if(document.createElementNS(t,&quot;meshgradient&quot;).x)return;const n=(t,e,s,r)=&gt;{let n=new x(.5*(e.x+s.x),.5*(e.y+s.y)),o=new x(.5*(t.x+e.x),.5*(t.y+e.y)),i=new x(.5*(s.x+r.x),.5*(s.y+r.y)),a=new x(.5*(n.x+o.x),.5*(n.y+o.y)),h=new x(.5*(n.x+i.x),.5*(n.y+i.y)),l=new x(.5*(a.x+h.x),.5*(a.y+h.y));return[[t,o,a,l],[l,h,i,r]]},o=t=&gt;{let e=t[0].distSquared(t[1]),s=t[2].distSquared(t[3]),r=.25*t[0].distSquared(t[2]),n=.25*t[1].distSquared(t[3]),o=e&gt;s?e:s,i=r&gt;n?r:n;return 18*(o&gt;i?o:i)},i=(t,e)=&gt;Math.sqrt(t.distSquared(e)),a=(t,e)=&gt;t.scale(2/3).add(e.scale(1/3)),h=t=&gt;{let e,s,r,n,o,i,a,h=new g;return t.match(/(\w+\(\s*[^)]+\))+/g).forEach(t=&gt;{let l=t.match(/[\w.-]+/g),d=l.shift();switch(d){case&quot;translate&quot;:2===l.length?e=new g(1,0,0,1,l[0],l[1]):(console.error(&quot;mesh.js: translate does not have 2 arguments!&quot;),e=new g(1,0,0,1,0,0)),h=h.append(e);break;case&quot;scale&quot;:1===l.length?s=new g(l[0],0,0,l[0],0,0):2===l.length?s=new g(l[0],0,0,l[1],0,0):(console.error(&quot;mesh.js: scale does not have 1 or 2 arguments!&quot;),s=new g(1,0,0,1,0,0)),h=h.append(s);break;case&quot;rotate&quot;:if(3===l.length&amp;&amp;(e=new g(1,0,0,1,l[1],l[2]),h=h.append(e)),l[0]){r=l[0]*Math.PI/180;let t=Math.cos(r),e=Math.sin(r);Math.abs(t)&lt;1e-16&amp;&amp;(t=0),Math.abs(e)&lt;1e-16&amp;&amp;(e=0),a=new g(t,e,-e,t,0,0),h=h.append(a)}else console.error(&quot;math.js: No argument to rotate transform!&quot;);3===l.length&amp;&amp;(e=new g(1,0,0,1,-l[1],-l[2]),h=h.append(e));break;case&quot;skewX&quot;:l[0]?(r=l[0]*Math.PI/180,n=Math.tan(r),o=new g(1,0,n,1,0,0),h=h.append(o)):console.error(&quot;math.js: No argument to skewX transform!&quot;);break;case&quot;skewY&quot;:l[0]?(r=l[0]*Math.PI/180,n=Math.tan(r),i=new g(1,n,0,1,0,0),h=h.append(i)):console.error(&quot;math.js: No argument to skewY transform!&quot;);break;case&quot;matrix&quot;:6===l.length?h=h.append(new g(...l)):console.error(&quot;math.js: Incorrect number of arguments for matrix!&quot;);break;default:console.error(&quot;mesh.js: Unhandled transform type: &quot;+d)}}),h},l=t=&gt;{let e=[],s=t.split(/[ ,]+/);for(let t=0,r=s.length-1;t&lt;r;t+=2)e.push(new x(parseFloat(s[t]),parseFloat(s[t+1])));return e},d=(t,e)=&gt;{for(let s in e)t.setAttribute(s,e[s])},c=(t,e,s,r,n)=&gt;{let o,i,a=[0,0,0,0];for(let h=0;h&lt;3;++h)e[h]&lt;t[h]&amp;&amp;e[h]&lt;s[h]||t[h]&lt;e[h]&amp;&amp;s[h]&lt;e[h]?a[h]=0:(a[h]=.5*((e[h]-t[h])/r+(s[h]-e[h])/n),o=Math.abs(3*(e[h]-t[h])/r),i=Math.abs(3*(s[h]-e[h])/n),a[h]&gt;o?a[h]=o:a[h]&gt;i&amp;&amp;(a[h]=i));return a},u=[[1,0,0,0,0,0,0,0,0,0,0,0,0,0,0,0],[0,0,0,0,1,0,0,0,0,0,0,0,0,0,0,0],[-3,3,0,0,-2,-1,0,0,0,0,0,0,0,0,0,0],[2,-2,0,0,1,1,0,0,0,0,0,0,0,0,0,0],[0,0,0,0,0,0,0,0,1,0,0,0,0,0,0,0],[0,0,0,0,0,0,0,0,0,0,0,0,1,0,0,0],[0,0,0,0,0,0,0,0,-3,3,0,0,-2,-1,0,0],[0,0,0,0,0,0,0,0,2,-2,0,0,1,1,0,0],[-3,0,3,0,0,0,0,0,-2,0,-1,0,0,0,0,0],[0,0,0,0,-3,0,3,0,0,0,0,0,-2,0,-1,0],[9,-9,-9,9,6,3,-6,-3,6,-6,3,-3,4,2,2,1],[-6,6,6,-6,-3,-3,3,3,-4,4,-2,2,-2,-2,-1,-1],[2,0,-2,0,0,0,0,0,1,0,1,0,0,0,0,0],[0,0,0,0,2,0,-2,0,0,0,0,0,1,0,1,0],[-6,6,6,-6,-4,-2,4,2,-3,3,-3,3,-2,-1,-2,-1],[4,-4,-4,4,2,2,-2,-2,2,-2,2,-2,1,1,1,1]],f=t=&gt;{let e=[];for(let s=0;s&lt;16;++s){e[s]=0;for(let r=0;r&lt;16;++r)e[s]+=u[s][r]*t[r]}return e},p=(t,e,s)=&gt;{const r=e*e,n=s*s,o=e*e*e,i=s*s*s;return t[0]+t[1]*e+t[2]*r+t[3]*o+t[4]*s+t[5]*s*e+t[6]*s*r+t[7]*s*o+t[8]*n+t[9]*n*e+t[10]*n*r+t[11]*n*o+t[12]*i+t[13]*i*e+t[14]*i*r+t[15]*i*o},y=t=&gt;{let e=[],s=[],r=[];for(let s=0;s&lt;4;++s)e[s]=[],e[s][0]=n(t[0][s],t[1][s],t[2][s],t[3][s]),e[s][1]=[],e[s][1].push(...n(...e[s][0][0])),e[s][1].push(...n(...e[s][0][1])),e[s][2]=[],e[s][2].push(...n(...e[s][1][0])),e[s][2].push(...n(...e[s][1][1])),e[s][2].push(...n(...e[s][1][2])),e[s][2].push(...n(...e[s][1][3]));for(let t=0;t&lt;8;++t){s[t]=[];for(let r=0;r&lt;4;++r)s[t][r]=[],s[t][r][0]=n(e[0][2][t][r],e[1][2][t][r],e[2][2][t][r],e[3][2][t][r]),s[t][r][1]=[],s[t][r][1].push(...n(...s[t][r][0][0])),s[t][r][1].push(...n(...s[t][r][0][1])),s[t][r][2]=[],s[t][r][2].push(...n(...s[t][r][1][0])),s[t][r][2].push(...n(...s[t][r][1][1])),s[t][r][2].push(...n(...s[t][r][1][2])),s[t][r][2].push(...n(...s[t][r][1][3]))}for(let t=0;t&lt;8;++t){r[t]=[];for(let e=0;e&lt;8;++e)r[t][e]=[],r[t][e][0]=s[t][0][2][e],r[t][e][1]=s[t][1][2][e],r[t][e][2]=s[t][2][2][e],r[t][e][3]=s[t][3][2][e]}return r};class x{constructor(t,e){this.x=t||0,this.y=e||0}toString(){return`(x=${this.x}, y=${this.y})`}clone(){return new x(this.x,this.y)}add(t){return new x(this.x+t.x,this.y+t.y)}scale(t){return void 0===t.x?new x(this.x*t,this.y*t):new x(this.x*t.x,this.y*t.y)}distSquared(t){let e=this.x-t.x,s=this.y-t.y;return e*e+s*s}transform(t){let e=this.x*t.a+this.y*t.c+t.e,s=this.x*t.b+this.y*t.d+t.f;return new x(e,s)}}class g{constructor(t,e,s,r,n,o){void 0===t?(this.a=1,this.b=0,this.c=0,this.d=1,this.e=0,this.f=0):(this.a=t,this.b=e,this.c=s,this.d=r,this.e=n,this.f=o)}toString(){return`affine: ${this.a} ${this.c} ${this.e} \n       ${this.b} ${this.d} ${this.f}`}append(t){t instanceof g||console.error(&quot;mesh.js: argument to Affine.append is not affine!&quot;);let e=this.a*t.a+this.c*t.b,s=this.b*t.a+this.d*t.b,r=this.a*t.c+this.c*t.d,n=this.b*t.c+this.d*t.d,o=this.a*t.e+this.c*t.f+this.e,i=this.b*t.e+this.d*t.f+this.f;return new g(e,s,r,n,o,i)}}class w{constructor(t,e){this.nodes=t,this.colors=e}paintCurve(t,e){if(o(this.nodes)&gt;r){const s=n(...this.nodes);let r=[[],[]],o=[[],[]];for(let t=0;t&lt;4;++t)r[0][t]=this.colors[0][t],r[1][t]=(this.colors[0][t]+this.colors[1][t])/2,o[0][t]=r[1][t],o[1][t]=this.colors[1][t];let i=new w(s[0],r),a=new w(s[1],o);i.paintCurve(t,e),a.paintCurve(t,e)}else{let s=Math.round(this.nodes[0].x);if(s&gt;=0&amp;&amp;s&lt;e){let r=4*(~~this.nodes[0].y*e+s);t[r]=Math.round(this.colors[0][0]),t[r+1]=Math.round(this.colors[0][1]),t[r+2]=Math.round(this.colors[0][2]),t[r+3]=Math.round(this.colors[0][3])}}}}class m{constructor(t,e){this.nodes=t,this.colors=e}split(){let t=[[],[],[],[]],e=[[],[],[],[]],s=[[[],[]],[[],[]]],r=[[[],[]],[[],[]]];for(let s=0;s&lt;4;++s){const r=n(this.nodes[0][s],this.nodes[1][s],this.nodes[2][s],this.nodes[3][s]);t[0][s]=r[0][0],t[1][s]=r[0][1],t[2][s]=r[0][2],t[3][s]=r[0][3],e[0][s]=r[1][0],e[1][s]=r[1][1],e[2][s]=r[1][2],e[3][s]=r[1][3]}for(let t=0;t&lt;4;++t)s[0][0][t]=this.colors[0][0][t],s[0][1][t]=this.colors[0][1][t],s[1][0][t]=(this.colors[0][0][t]+this.colors[1][0][t])/2,s[1][1][t]=(this.colors[0][1][t]+this.colors[1][1][t])/2,r[0][0][t]=s[1][0][t],r[0][1][t]=s[1][1][t],r[1][0][t]=this.colors[1][0][t],r[1][1][t]=this.colors[1][1][t];return[new m(t,s),new m(e,r)]}paint(t,e){let s,n=!1;for(let t=0;t&lt;4;++t)if((s=o([this.nodes[0][t],this.nodes[1][t],this.nodes[2][t],this.nodes[3][t]]))&gt;r){n=!0;break}if(n){let s=this.split();s[0].paint(t,e),s[1].paint(t,e)}else{new w([...this.nodes[0]],[...this.colors[0]]).paintCurve(t,e)}}}class b{constructor(t){this.readMesh(t),this.type=t.getAttribute(&quot;type&quot;)||&quot;bilinear&quot;}readMesh(t){let e=[[]],s=[[]],r=Number(t.getAttribute(&quot;x&quot;)),n=Number(t.getAttribute(&quot;y&quot;));e[0][0]=new x(r,n);let o=t.children;for(let t=0,r=o.length;t&lt;r;++t){e[3*t+1]=[],e[3*t+2]=[],e[3*t+3]=[],s[t+1]=[];let r=o[t].children;for(let n=0,o=r.length;n&lt;o;++n){let o=r[n].children;for(let r=0,i=o.length;r&lt;i;++r){let i=r;0!==t&amp;&amp;++i;let h,d=o[r].getAttribute(&quot;path&quot;),c=&quot;l&quot;;null!=d&amp;&amp;(c=(h=d.match(/\s*([lLcC])\s*(.*)/))[1]);let u=l(h[2]);switch(c){case&quot;l&quot;:0===i?(e[3*t][3*n+3]=u[0].add(e[3*t][3*n]),e[3*t][3*n+1]=a(e[3*t][3*n],e[3*t][3*n+3]),e[3*t][3*n+2]=a(e[3*t][3*n+3],e[3*t][3*n])):1===i?(e[3*t+3][3*n+3]=u[0].add(e[3*t][3*n+3]),e[3*t+1][3*n+3]=a(e[3*t][3*n+3],e[3*t+3][3*n+3]),e[3*t+2][3*n+3]=a(e[3*t+3][3*n+3],e[3*t][3*n+3])):2===i?(0===n&amp;&amp;(e[3*t+3][3*n+0]=u[0].add(e[3*t+3][3*n+3])),e[3*t+3][3*n+1]=a(e[3*t+3][3*n],e[3*t+3][3*n+3]),e[3*t+3][3*n+2]=a(e[3*t+3][3*n+3],e[3*t+3][3*n])):(e[3*t+1][3*n]=a(e[3*t][3*n],e[3*t+3][3*n]),e[3*t+2][3*n]=a(e[3*t+3][3*n],e[3*t][3*n]));break;case&quot;L&quot;:0===i?(e[3*t][3*n+3]=u[0],e[3*t][3*n+1]=a(e[3*t][3*n],e[3*t][3*n+3]),e[3*t][3*n+2]=a(e[3*t][3*n+3],e[3*t][3*n])):1===i?(e[3*t+3][3*n+3]=u[0],e[3*t+1][3*n+3]=a(e[3*t][3*n+3],e[3*t+3][3*n+3]),e[3*t+2][3*n+3]=a(e[3*t+3][3*n+3],e[3*t][3*n+3])):2===i?(0===n&amp;&amp;(e[3*t+3][3*n+0]=u[0]),e[3*t+3][3*n+1]=a(e[3*t+3][3*n],e[3*t+3][3*n+3]),e[3*t+3][3*n+2]=a(e[3*t+3][3*n+3],e[3*t+3][3*n])):(e[3*t+1][3*n]=a(e[3*t][3*n],e[3*t+3][3*n]),e[3*t+2][3*n]=a(e[3*t+3][3*n],e[3*t][3*n]));break;case&quot;c&quot;:0===i?(e[3*t][3*n+1]=u[0].add(e[3*t][3*n]),e[3*t][3*n+2]=u[1].add(e[3*t][3*n]),e[3*t][3*n+3]=u[2].add(e[3*t][3*n])):1===i?(e[3*t+1][3*n+3]=u[0].add(e[3*t][3*n+3]),e[3*t+2][3*n+3]=u[1].add(e[3*t][3*n+3]),e[3*t+3][3*n+3]=u[2].add(e[3*t][3*n+3])):2===i?(e[3*t+3][3*n+2]=u[0].add(e[3*t+3][3*n+3]),e[3*t+3][3*n+1]=u[1].add(e[3*t+3][3*n+3]),0===n&amp;&amp;(e[3*t+3][3*n+0]=u[2].add(e[3*t+3][3*n+3]))):(e[3*t+2][3*n]=u[0].add(e[3*t+3][3*n]),e[3*t+1][3*n]=u[1].add(e[3*t+3][3*n]));break;case&quot;C&quot;:0===i?(e[3*t][3*n+1]=u[0],e[3*t][3*n+2]=u[1],e[3*t][3*n+3]=u[2]):1===i?(e[3*t+1][3*n+3]=u[0],e[3*t+2][3*n+3]=u[1],e[3*t+3][3*n+3]=u[2]):2===i?(e[3*t+3][3*n+2]=u[0],e[3*t+3][3*n+1]=u[1],0===n&amp;&amp;(e[3*t+3][3*n+0]=u[2])):(e[3*t+2][3*n]=u[0],e[3*t+1][3*n]=u[1]);break;default:console.error(&quot;mesh.js: &quot;+c+&quot; invalid path type.&quot;)}if(0===t&amp;&amp;0===n||r&gt;0){let e=window.getComputedStyle(o[r]).stopColor.match(/^rgb\s*\(\s*(\d+)\s*,\s*(\d+)\s*,\s*(\d+)\s*\)$/i),a=window.getComputedStyle(o[r]).stopOpacity,h=255;a&amp;&amp;(h=Math.floor(255*a)),e&amp;&amp;(0===i?(s[t][n]=[],s[t][n][0]=Math.floor(e[1]),s[t][n][1]=Math.floor(e[2]),s[t][n][2]=Math.floor(e[3]),s[t][n][3]=h):1===i?(s[t][n+1]=[],s[t][n+1][0]=Math.floor(e[1]),s[t][n+1][1]=Math.floor(e[2]),s[t][n+1][2]=Math.floor(e[3]),s[t][n+1][3]=h):2===i?(s[t+1][n+1]=[],s[t+1][n+1][0]=Math.floor(e[1]),s[t+1][n+1][1]=Math.floor(e[2]),s[t+1][n+1][2]=Math.floor(e[3]),s[t+1][n+1][3]=h):3===i&amp;&amp;(s[t+1][n]=[],s[t+1][n][0]=Math.floor(e[1]),s[t+1][n][1]=Math.floor(e[2]),s[t+1][n][2]=Math.floor(e[3]),s[t+1][n][3]=h))}}e[3*t+1][3*n+1]=new x,e[3*t+1][3*n+2]=new x,e[3*t+2][3*n+1]=new x,e[3*t+2][3*n+2]=new x,e[3*t+1][3*n+1].x=(-4*e[3*t][3*n].x+6*(e[3*t][3*n+1].x+e[3*t+1][3*n].x)+-2*(e[3*t][3*n+3].x+e[3*t+3][3*n].x)+3*(e[3*t+3][3*n+1].x+e[3*t+1][3*n+3].x)+-1*e[3*t+3][3*n+3].x)/9,e[3*t+1][3*n+2].x=(-4*e[3*t][3*n+3].x+6*(e[3*t][3*n+2].x+e[3*t+1][3*n+3].x)+-2*(e[3*t][3*n].x+e[3*t+3][3*n+3].x)+3*(e[3*t+3][3*n+2].x+e[3*t+1][3*n].x)+-1*e[3*t+3][3*n].x)/9,e[3*t+2][3*n+1].x=(-4*e[3*t+3][3*n].x+6*(e[3*t+3][3*n+1].x+e[3*t+2][3*n].x)+-2*(e[3*t+3][3*n+3].x+e[3*t][3*n].x)+3*(e[3*t][3*n+1].x+e[3*t+2][3*n+3].x)+-1*e[3*t][3*n+3].x)/9,e[3*t+2][3*n+2].x=(-4*e[3*t+3][3*n+3].x+6*(e[3*t+3][3*n+2].x+e[3*t+2][3*n+3].x)+-2*(e[3*t+3][3*n].x+e[3*t][3*n+3].x)+3*(e[3*t][3*n+2].x+e[3*t+2][3*n].x)+-1*e[3*t][3*n].x)/9,e[3*t+1][3*n+1].y=(-4*e[3*t][3*n].y+6*(e[3*t][3*n+1].y+e[3*t+1][3*n].y)+-2*(e[3*t][3*n+3].y+e[3*t+3][3*n].y)+3*(e[3*t+3][3*n+1].y+e[3*t+1][3*n+3].y)+-1*e[3*t+3][3*n+3].y)/9,e[3*t+1][3*n+2].y=(-4*e[3*t][3*n+3].y+6*(e[3*t][3*n+2].y+e[3*t+1][3*n+3].y)+-2*(e[3*t][3*n].y+e[3*t+3][3*n+3].y)+3*(e[3*t+3][3*n+2].y+e[3*t+1][3*n].y)+-1*e[3*t+3][3*n].y)/9,e[3*t+2][3*n+1].y=(-4*e[3*t+3][3*n].y+6*(e[3*t+3][3*n+1].y+e[3*t+2][3*n].y)+-2*(e[3*t+3][3*n+3].y+e[3*t][3*n].y)+3*(e[3*t][3*n+1].y+e[3*t+2][3*n+3].y)+-1*e[3*t][3*n+3].y)/9,e[3*t+2][3*n+2].y=(-4*e[3*t+3][3*n+3].y+6*(e[3*t+3][3*n+2].y+e[3*t+2][3*n+3].y)+-2*(e[3*t+3][3*n].y+e[3*t][3*n+3].y)+3*(e[3*t][3*n+2].y+e[3*t+2][3*n].y)+-1*e[3*t][3*n].y)/9}}this.nodes=e,this.colors=s}paintMesh(t,e){let s=(this.nodes.length-1)/3,r=(this.nodes[0].length-1)/3;if(&quot;bilinear&quot;===this.type||s&lt;2||r&lt;2){let n;for(let o=0;o&lt;s;++o)for(let s=0;s&lt;r;++s){let r=[];for(let t=3*o,e=3*o+4;t&lt;e;++t)r.push(this.nodes[t].slice(3*s,3*s+4));let i=[];i.push(this.colors[o].slice(s,s+2)),i.push(this.colors[o+1].slice(s,s+2)),(n=new m(r,i)).paint(t,e)}}else{let n,o,a,h,l,d,u;const x=s,g=r;s++,r++;let w=new Array(s);for(let t=0;t&lt;s;++t){w[t]=new Array(r);for(let e=0;e&lt;r;++e)w[t][e]=[],w[t][e][0]=this.nodes[3*t][3*e],w[t][e][1]=this.colors[t][e]}for(let t=0;t&lt;s;++t)for(let e=0;e&lt;r;++e)0!==t&amp;&amp;t!==x&amp;&amp;(n=i(w[t-1][e][0],w[t][e][0]),o=i(w[t+1][e][0],w[t][e][0]),w[t][e][2]=c(w[t-1][e][1],w[t][e][1],w[t+1][e][1],n,o)),0!==e&amp;&amp;e!==g&amp;&amp;(n=i(w[t][e-1][0],w[t][e][0]),o=i(w[t][e+1][0],w[t][e][0]),w[t][e][3]=c(w[t][e-1][1],w[t][e][1],w[t][e+1][1],n,o));for(let t=0;t&lt;r;++t){w[0][t][2]=[],w[x][t][2]=[];for(let e=0;e&lt;4;++e)n=i(w[1][t][0],w[0][t][0]),o=i(w[x][t][0],w[x-1][t][0]),w[0][t][2][e]=n&gt;0?2*(w[1][t][1][e]-w[0][t][1][e])/n-w[1][t][2][e]:0,w[x][t][2][e]=o&gt;0?2*(w[x][t][1][e]-w[x-1][t][1][e])/o-w[x-1][t][2][e]:0}for(let t=0;t&lt;s;++t){w[t][0][3]=[],w[t][g][3]=[];for(let e=0;e&lt;4;++e)n=i(w[t][1][0],w[t][0][0]),o=i(w[t][g][0],w[t][g-1][0]),w[t][0][3][e]=n&gt;0?2*(w[t][1][1][e]-w[t][0][1][e])/n-w[t][1][3][e]:0,w[t][g][3][e]=o&gt;0?2*(w[t][g][1][e]-w[t][g-1][1][e])/o-w[t][g-1][3][e]:0}for(let s=0;s&lt;x;++s)for(let r=0;r&lt;g;++r){let n=i(w[s][r][0],w[s+1][r][0]),o=i(w[s][r+1][0],w[s+1][r+1][0]),c=i(w[s][r][0],w[s][r+1][0]),x=i(w[s+1][r][0],w[s+1][r+1][0]),g=[[],[],[],[]];for(let t=0;t&lt;4;++t){(d=[])[0]=w[s][r][1][t],d[1]=w[s+1][r][1][t],d[2]=w[s][r+1][1][t],d[3]=w[s+1][r+1][1][t],d[4]=w[s][r][2][t]*n,d[5]=w[s+1][r][2][t]*n,d[6]=w[s][r+1][2][t]*o,d[7]=w[s+1][r+1][2][t]*o,d[8]=w[s][r][3][t]*c,d[9]=w[s+1][r][3][t]*x,d[10]=w[s][r+1][3][t]*c,d[11]=w[s+1][r+1][3][t]*x,d[12]=0,d[13]=0,d[14]=0,d[15]=0,u=f(d);for(let e=0;e&lt;9;++e){g[t][e]=[];for(let s=0;s&lt;9;++s)g[t][e][s]=p(u,e/8,s/8),g[t][e][s]&gt;255?g[t][e][s]=255:g[t][e][s]&lt;0&amp;&amp;(g[t][e][s]=0)}}h=[];for(let t=3*s,e=3*s+4;t&lt;e;++t)h.push(this.nodes[t].slice(3*r,3*r+4));l=y(h);for(let s=0;s&lt;8;++s)for(let r=0;r&lt;8;++r)(a=new m(l[s][r],[[[g[0][s][r],g[1][s][r],g[2][s][r],g[3][s][r]],[g[0][s][r+1],g[1][s][r+1],g[2][s][r+1],g[3][s][r+1]]],[[g[0][s+1][r],g[1][s+1][r],g[2][s+1][r],g[3][s+1][r]],[g[0][s+1][r+1],g[1][s+1][r+1],g[2][s+1][r+1],g[3][s+1][r+1]]]])).paint(t,e)}}}transform(t){if(t instanceof x)for(let e=0,s=this.nodes.length;e&lt;s;++e)for(let s=0,r=this.nodes[0].length;s&lt;r;++s)this.nodes[e][s]=this.nodes[e][s].add(t);else if(t instanceof g)for(let e=0,s=this.nodes.length;e&lt;s;++e)for(let s=0,r=this.nodes[0].length;s&lt;r;++s)this.nodes[e][s]=this.nodes[e][s].transform(t)}scale(t){for(let e=0,s=this.nodes.length;e&lt;s;++e)for(let s=0,r=this.nodes[0].length;s&lt;r;++s)this.nodes[e][s]=this.nodes[e][s].scale(t)}}document.querySelectorAll(&quot;rect,circle,ellipse,path,text&quot;).forEach((r,n)=&gt;{let o=r.getAttribute(&quot;id&quot;);o||(o=&quot;patchjs_shape&quot;+n,r.setAttribute(&quot;id&quot;,o));const i=r.style.fill.match(/^url\(\s*&quot;?\s*#([^\s&quot;]+)&quot;?\s*\)/),a=r.style.stroke.match(/^url\(\s*&quot;?\s*#([^\s&quot;]+)&quot;?\s*\)/);if(i&amp;&amp;i[1]){const a=document.getElementById(i[1]);if(a&amp;&amp;&quot;meshgradient&quot;===a.nodeName){const i=r.getBBox();let l=document.createElementNS(s,&quot;canvas&quot;);d(l,{width:i.width,height:i.height});const c=l.getContext(&quot;2d&quot;);let u=c.createImageData(i.width,i.height);const f=new b(a);&quot;objectBoundingBox&quot;===a.getAttribute(&quot;gradientUnits&quot;)&amp;&amp;f.scale(new x(i.width,i.height));const p=a.getAttribute(&quot;gradientTransform&quot;);null!=p&amp;&amp;f.transform(h(p)),&quot;userSpaceOnUse&quot;===a.getAttribute(&quot;gradientUnits&quot;)&amp;&amp;f.transform(new x(-i.x,-i.y)),f.paintMesh(u.data,l.width),c.putImageData(u,0,0);const y=document.createElementNS(t,&quot;image&quot;);d(y,{width:i.width,height:i.height,x:i.x,y:i.y});let g=l.toDataURL();y.setAttributeNS(e,&quot;xlink:href&quot;,g),r.parentNode.insertBefore(y,r),r.style.fill=&quot;none&quot;;const w=document.createElementNS(t,&quot;use&quot;);w.setAttributeNS(e,&quot;xlink:href&quot;,&quot;#&quot;+o);const m=&quot;patchjs_clip&quot;+n,M=document.createElementNS(t,&quot;clipPath&quot;);M.setAttribute(&quot;id&quot;,m),M.appendChild(w),r.parentElement.insertBefore(M,r),y.setAttribute(&quot;clip-path&quot;,&quot;url(#&quot;+m+&quot;)&quot;),u=null,l=null,g=null}}if(a&amp;&amp;a[1]){const o=document.getElementById(a[1]);if(o&amp;&amp;&quot;meshgradient&quot;===o.nodeName){const i=parseFloat(r.style.strokeWidth.slice(0,-2))*(parseFloat(r.style.strokeMiterlimit)||parseFloat(r.getAttribute(&quot;stroke-miterlimit&quot;))||1),a=r.getBBox(),l=Math.trunc(a.width+i),c=Math.trunc(a.height+i),u=Math.trunc(a.x-i/2),f=Math.trunc(a.y-i/2);let p=document.createElementNS(s,&quot;canvas&quot;);d(p,{width:l,height:c});const y=p.getContext(&quot;2d&quot;);let g=y.createImageData(l,c);const w=new b(o);&quot;objectBoundingBox&quot;===o.getAttribute(&quot;gradientUnits&quot;)&amp;&amp;w.scale(new x(l,c));const m=o.getAttribute(&quot;gradientTransform&quot;);null!=m&amp;&amp;w.transform(h(m)),&quot;userSpaceOnUse&quot;===o.getAttribute(&quot;gradientUnits&quot;)&amp;&amp;w.transform(new x(-u,-f)),w.paintMesh(g.data,p.width),y.putImageData(g,0,0);const M=document.createElementNS(t,&quot;image&quot;);d(M,{width:l,height:c,x:0,y:0});let S=p.toDataURL();M.setAttributeNS(e,&quot;xlink:href&quot;,S);const k=&quot;pattern_clip&quot;+n,A=document.createElementNS(t,&quot;pattern&quot;);d(A,{id:k,patternUnits:&quot;userSpaceOnUse&quot;,width:l,height:c,x:u,y:f}),A.appendChild(M),o.parentNode.appendChild(A),r.style.stroke=&quot;url(#&quot;+k+&quot;)&quot;,g=null,p=null,S=null}}})}();
</script></svg>
